<?xml version="1.0" encoding="utf-8" standalone="no"?>
<!DOCTYPE svg PUBLIC "-//W3C//DTD SVG 1.1//EN"
  "http://www.w3.org/Graphics/SVG/1.1/DTD/svg11.dtd">
<svg xmlns:xlink="http://www.w3.org/1999/xlink" width="1000.8pt" height="713.4375pt" viewBox="0 0 1000.8 713.4375" xmlns="http://www.w3.org/2000/svg" version="1.1">
 <metadata>
  <rdf:RDF xmlns:dc="http://purl.org/dc/elements/1.1/" xmlns:cc="http://creativecommons.org/ns#" xmlns:rdf="http://www.w3.org/1999/02/22-rdf-syntax-ns#">
   <cc:Work>
    <dc:type rdf:resource="http://purl.org/dc/dcmitype/StillImage"/>
    <dc:date>2025-11-10T14:57:25.467524</dc:date>
    <dc:format>image/svg+xml</dc:format>
    <dc:creator>
     <cc:Agent>
      <dc:title>Matplotlib v3.10.7, https://matplotlib.org/</dc:title>
     </cc:Agent>
    </dc:creator>
   </cc:Work>
  </rdf:RDF>
 </metadata>
 <defs>
  <style type="text/css">*{stroke-linejoin: round; stroke-linecap: butt}</style>
 </defs>
 <g id="figure_1">
  <g id="patch_1">
   <path d="M 0 713.4375 
L 1000.8 713.4375 
L 1000.8 0 
L 0 0 
z
" style="fill: #ffffff"/>
  </g>
  <g id="axes_1">
   <g id="patch_2">
    <path d="M 510.498736 336.365024 
Q 510.021221 480.62573 509.547408 623.768408 
" clip-path="url(#peab9f40786)" style="fill: none; stroke: #0000ff; stroke-opacity: 0.7; stroke-linecap: round"/>
    <path d="M 513.573866 615.781692 
L 509.547408 623.768408 
L 505.57391 615.755212 
z
" clip-path="url(#peab9f40786)" style="fill: #0000ff; fill-opacity: 0.7; stroke: #0000ff; stroke-opacity: 0.7; stroke-linecap: round"/>
   </g>
   <g id="patch_3">
    <path d="M 504.343706 333.773322 
Q 371.121223 464.438036 238.696935 594.31988 
" clip-path="url(#peab9f40786)" style="fill: none; stroke: #0000ff; stroke-opacity: 0.7; stroke-linecap: round"/>
    <path d="M 247.209232 591.573827 
L 238.696935 594.31988 
L 241.607471 585.862411 
z
" clip-path="url(#peab9f40786)" style="fill: #0000ff; fill-opacity: 0.7; stroke: #0000ff; stroke-opacity: 0.7; stroke-linecap: round"/>
   </g>
   <g id="patch_4">
    <path d="M 519.185179 327.541264 
Q 709.264713 323.872718 898.226421 320.225746 
" clip-path="url(#peab9f40786)" style="fill: none; stroke: #0000ff; stroke-opacity: 0.7; stroke-linecap: round"/>
    <path d="M 890.150725 316.380863 
L 898.226421 320.225746 
L 890.305097 324.379373 
z
" clip-path="url(#peab9f40786)" style="fill: #0000ff; fill-opacity: 0.7; stroke: #0000ff; stroke-opacity: 0.7; stroke-linecap: round"/>
   </g>
   <g id="patch_5">
    <path d="M 502.048685 325.936389 
Q 307.063131 285.186216 113.171966 244.66476 
" clip-path="url(#peab9f40786)" style="fill: none; stroke: #0000ff; stroke-opacity: 0.7; stroke-linecap: round"/>
    <path d="M 120.184497 250.216734 
L 113.171966 244.66476 
L 121.821064 242.38592 
z
" clip-path="url(#peab9f40786)" style="fill: #0000ff; fill-opacity: 0.7; stroke: #0000ff; stroke-opacity: 0.7; stroke-linecap: round"/>
   </g>
   <g id="patch_6">
    <path d="M 501.874597 328.00186 
Q 301.662935 334.792967 102.568665 341.546173 
" clip-path="url(#peab9f40786)" style="fill: none; stroke: #0000ff; stroke-opacity: 0.7; stroke-linecap: round"/>
    <path d="M 110.699667 345.272673 
L 102.568665 341.546173 
L 110.428466 337.277271 
z
" clip-path="url(#peab9f40786)" style="fill: #0000ff; fill-opacity: 0.7; stroke: #0000ff; stroke-opacity: 0.7; stroke-linecap: round"/>
   </g>
   <g id="patch_7">
    <path d="M 504.557441 321.434971 
Q 404.72838 216.53181 305.670059 112.438563 
" clip-path="url(#peab9f40786)" style="fill: none; stroke: #0000ff; stroke-opacity: 0.7; stroke-linecap: round"/>
    <path d="M 308.287383 120.991318 
L 305.670059 112.438563 
L 314.082657 115.476357 
z
" clip-path="url(#peab9f40786)" style="fill: #0000ff; fill-opacity: 0.7; stroke: #0000ff; stroke-opacity: 0.7; stroke-linecap: round"/>
   </g>
   <g id="patch_8">
    <path d="M 502.168347 329.965329 
Q 311.539235 381.435808 121.989505 432.614851 
" clip-path="url(#peab9f40786)" style="fill: none; stroke: #0000ff; stroke-opacity: 0.7; stroke-linecap: round"/>
    <path d="M 130.755606 434.391214 
L 121.989505 432.614851 
L 128.670256 426.667788 
z
" clip-path="url(#peab9f40786)" style="fill: #0000ff; fill-opacity: 0.7; stroke: #0000ff; stroke-opacity: 0.7; stroke-linecap: round"/>
   </g>
   <g id="patch_9">
    <path d="M 448.29599 344.418286 
Q 662.687496 380.549069 875.976516 416.494053 
" clip-path="url(#peab9f40786)" style="fill: none; stroke: #0000ff; stroke-opacity: 0.7; stroke-linecap: round"/>
    <path d="M 868.752492 411.220204 
L 875.976516 416.494053 
L 867.423022 419.108962 
z
" clip-path="url(#peab9f40786)" style="fill: #0000ff; fill-opacity: 0.7; stroke: #0000ff; stroke-opacity: 0.7; stroke-linecap: round"/>
   </g>
   <g id="patch_10">
    <path d="M 448.07568 340.567792 
Q 665.945688 277.442035 882.741829 214.627421 
" clip-path="url(#peab9f40786)" style="fill: none; stroke: #0000ff; stroke-opacity: 0.7; stroke-linecap: round"/>
    <path d="M 873.944684 213.011793 
L 882.741829 214.627421 
L 876.17104 220.69576 
z
" clip-path="url(#peab9f40786)" style="fill: #0000ff; fill-opacity: 0.7; stroke: #0000ff; stroke-opacity: 0.7; stroke-linecap: round"/>
   </g>
   <g id="patch_11">
    <path d="M 447.866432 346.006142 
Q 664.164507 426.726941 879.415114 507.056833 
" clip-path="url(#peab9f40786)" style="fill: none; stroke-dasharray: 3.7,1.6; stroke-dashoffset: 0; stroke: #800080; stroke-opacity: 0.7; stroke-linecap: round"/>
    <path d="M 873.318589 500.512187 
L 879.415114 507.056833 
L 870.521482 508.007266 
z
" clip-path="url(#peab9f40786)" style="fill: #800080; fill-opacity: 0.7; stroke-dasharray: 3.7,1.6; stroke-dashoffset: 0; stroke: #800080; stroke-opacity: 0.7; stroke-linecap: round"/>
   </g>
   <g id="patch_12">
    <path d="M 436.942961 334.785382 
Q 404.524328 240.307839 372.468565 146.887805 
" clip-path="url(#peab9f40786)" style="fill: none; stroke-dasharray: 3.7,1.6; stroke-dashoffset: 0; stroke: #800080; stroke-opacity: 0.7; stroke-linecap: round"/>
    <path d="M 371.281587 155.752967 
L 372.468565 146.887805 
L 378.848507 153.156485 
z
" clip-path="url(#peab9f40786)" style="fill: #800080; fill-opacity: 0.7; stroke-dasharray: 3.7,1.6; stroke-dashoffset: 0; stroke: #800080; stroke-opacity: 0.7; stroke-linecap: round"/>
   </g>
   <g id="patch_13">
    <path d="M 442.534955 334.777235 
Q 483.579745 213.710248 524.265563 93.7021 
" clip-path="url(#peab9f40786)" style="fill: none; stroke-dasharray: 3.7,1.6; stroke-dashoffset: 0; stroke: #800080; stroke-opacity: 0.7; stroke-linecap: round"/>
    <path d="M 517.908745 99.994228 
L 524.265563 93.7021 
L 525.485175 102.56283 
z
" clip-path="url(#peab9f40786)" style="fill: #800080; fill-opacity: 0.7; stroke-dasharray: 3.7,1.6; stroke-dashoffset: 0; stroke: #800080; stroke-opacity: 0.7; stroke-linecap: round"/>
   </g>
   <g id="patch_14">
    <path d="M 446.290617 337.303095 
Q 561.099783 237.608666 675.064766 138.647282 
" clip-path="url(#peab9f40786)" style="fill: none; stroke-dasharray: 3.7,1.6; stroke-dashoffset: 0; stroke: #800080; stroke-opacity: 0.7; stroke-linecap: round"/>
    <path d="M 666.401663 140.872287 
L 675.064766 138.647282 
L 671.646908 146.912767 
z
" clip-path="url(#peab9f40786)" style="fill: #800080; fill-opacity: 0.7; stroke-dasharray: 3.7,1.6; stroke-dashoffset: 0; stroke: #800080; stroke-opacity: 0.7; stroke-linecap: round"/>
   </g>
   <g id="patch_15">
    <path d="M 431.418988 345.327176 
Q 276.152229 389.071158 121.961611 432.511954 
" clip-path="url(#peab9f40786)" style="fill: none; stroke-dasharray: 3.7,1.6; stroke-dashoffset: 0; stroke: #800080; stroke-opacity: 0.7; stroke-linecap: round"/>
    <path d="M 130.746556 434.192651 
L 121.961611 432.511954 
L 128.577135 426.492416 
z
" clip-path="url(#peab9f40786)" style="fill: #800080; fill-opacity: 0.7; stroke-dasharray: 3.7,1.6; stroke-dashoffset: 0; stroke: #800080; stroke-opacity: 0.7; stroke-linecap: round"/>
   </g>
   <g id="patch_16">
    <path d="M 444.547258 350.189102 
Q 540.849494 495.065199 636.532811 639.0102 
" clip-path="url(#peab9f40786)" style="fill: none; stroke-dasharray: 3.7,1.6; stroke-dashoffset: 0; stroke: #800080; stroke-opacity: 0.7; stroke-linecap: round"/>
    <path d="M 635.435375 630.13351 
L 636.532811 639.0102 
L 628.772997 634.562135 
z
" clip-path="url(#peab9f40786)" style="fill: #800080; fill-opacity: 0.7; stroke-dasharray: 3.7,1.6; stroke-dashoffset: 0; stroke: #800080; stroke-opacity: 0.7; stroke-linecap: round"/>
   </g>
   <g id="patch_17">
    <path d="M 437.806193 351.414661 
Q 404.81203 494.280343 372.069449 636.056665 
" clip-path="url(#peab9f40786)" style="fill: none; stroke-dasharray: 3.7,1.6; stroke-dashoffset: 0; stroke: #800080; stroke-opacity: 0.7; stroke-linecap: round"/>
    <path d="M 377.767043 629.161926 
L 372.069449 636.056665 
L 369.972214 627.361747 
z
" clip-path="url(#peab9f40786)" style="fill: #800080; fill-opacity: 0.7; stroke-dasharray: 3.7,1.6; stroke-dashoffset: 0; stroke: #800080; stroke-opacity: 0.7; stroke-linecap: round"/>
   </g>
   <g id="patch_18">
    <path d="M 432.375556 347.51195 
Q 292.634564 433.360848 153.846198 518.624507 
" clip-path="url(#peab9f40786)" style="fill: none; stroke-dasharray: 3.7,1.6; stroke-dashoffset: 0; stroke: #800080; stroke-opacity: 0.7; stroke-linecap: round"/>
    <path d="M 162.756446 517.845095 
L 153.846198 518.624507 
L 158.568818 511.028662 
z
" clip-path="url(#peab9f40786)" style="fill: #800080; fill-opacity: 0.7; stroke-dasharray: 3.7,1.6; stroke-dashoffset: 0; stroke: #800080; stroke-opacity: 0.7; stroke-linecap: round"/>
   </g>
   <g id="patch_19">
    <path d="M 446.741869 348.094194 
Q 607.065707 465.464536 766.487419 582.174447 
" clip-path="url(#peab9f40786)" style="fill: none; stroke-dasharray: 3.7,1.6; stroke-dashoffset: 0; stroke: #800080; stroke-opacity: 0.7; stroke-linecap: round"/>
    <path d="M 762.395161 574.221244 
L 766.487419 582.174447 
L 757.669503 580.676331 
z
" clip-path="url(#peab9f40786)" style="fill: #800080; fill-opacity: 0.7; stroke-dasharray: 3.7,1.6; stroke-dashoffset: 0; stroke: #800080; stroke-opacity: 0.7; stroke-linecap: round"/>
   </g>
   <g id="text_1">
    <g id="patch_20">
     <path d="M 515.482593 488.481116 
L 515.534477 472.806671 
Q 515.541428 470.706682 513.441439 470.699731 
L 506.666789 470.677307 
Q 504.5668 470.670356 504.559849 472.770344 
L 504.507966 488.444789 
Q 504.501015 490.544778 506.601003 490.551729 
L 513.375653 490.574154 
Q 515.475642 490.581105 515.482593 488.481116 
z
" clip-path="url(#peab9f40786)" style="fill: #ffffff; stroke: #ffffff; stroke-linejoin: miter"/>
    </g>
    <g clip-path="url(#peab9f40786)">
     <!-- calls -->
     <g style="fill: #8b0000" transform="translate(511.926831 488.469346) rotate(-89.810347) scale(0.07 -0.07)">
      <defs>
       <path id="DejaVuSans-63" d="M 3122 3366 
L 3122 2828 
Q 2878 2963 2633 3030 
Q 2388 3097 2138 3097 
Q 1578 3097 1268 2742 
Q 959 2388 959 1747 
Q 959 1106 1268 751 
Q 1578 397 2138 397 
Q 2388 397 2633 464 
Q 2878 531 3122 666 
L 3122 134 
Q 2881 22 2623 -34 
Q 2366 -91 2075 -91 
Q 1284 -91 818 406 
Q 353 903 353 1747 
Q 353 2603 823 3093 
Q 1294 3584 2113 3584 
Q 2378 3584 2631 3529 
Q 2884 3475 3122 3366 
z
" transform="scale(0.015625)"/>
       <path id="DejaVuSans-61" d="M 2194 1759 
Q 1497 1759 1228 1600 
Q 959 1441 959 1056 
Q 959 750 1161 570 
Q 1363 391 1709 391 
Q 2188 391 2477 730 
Q 2766 1069 2766 1631 
L 2766 1759 
L 2194 1759 
z
M 3341 1997 
L 3341 0 
L 2766 0 
L 2766 531 
Q 2569 213 2275 61 
Q 1981 -91 1556 -91 
Q 1019 -91 701 211 
Q 384 513 384 1019 
Q 384 1609 779 1909 
Q 1175 2209 1959 2209 
L 2766 2209 
L 2766 2266 
Q 2766 2663 2505 2880 
Q 2244 3097 1772 3097 
Q 1472 3097 1187 3025 
Q 903 2953 641 2809 
L 641 3341 
Q 956 3463 1253 3523 
Q 1550 3584 1831 3584 
Q 2591 3584 2966 3190 
Q 3341 2797 3341 1997 
z
" transform="scale(0.015625)"/>
       <path id="DejaVuSans-6c" d="M 603 4863 
L 1178 4863 
L 1178 0 
L 603 0 
L 603 4863 
z
" transform="scale(0.015625)"/>
       <path id="DejaVuSans-73" d="M 2834 3397 
L 2834 2853 
Q 2591 2978 2328 3040 
Q 2066 3103 1784 3103 
Q 1356 3103 1142 2972 
Q 928 2841 928 2578 
Q 928 2378 1081 2264 
Q 1234 2150 1697 2047 
L 1894 2003 
Q 2506 1872 2764 1633 
Q 3022 1394 3022 966 
Q 3022 478 2636 193 
Q 2250 -91 1575 -91 
Q 1294 -91 989 -36 
Q 684 19 347 128 
L 347 722 
Q 666 556 975 473 
Q 1284 391 1588 391 
Q 1994 391 2212 530 
Q 2431 669 2431 922 
Q 2431 1156 2273 1281 
Q 2116 1406 1581 1522 
L 1381 1569 
Q 847 1681 609 1914 
Q 372 2147 372 2553 
Q 372 3047 722 3315 
Q 1072 3584 1716 3584 
Q 2034 3584 2315 3537 
Q 2597 3491 2834 3397 
z
" transform="scale(0.015625)"/>
      </defs>
      <use xlink:href="#DejaVuSans-63"/>
      <use xlink:href="#DejaVuSans-61" transform="translate(54.980469 0)"/>
      <use xlink:href="#DejaVuSans-6c" transform="translate(116.259766 0)"/>
      <use xlink:href="#DejaVuSans-6c" transform="translate(144.042969 0)"/>
      <use xlink:href="#DejaVuSans-73" transform="translate(171.826172 0)"/>
     </g>
    </g>
   </g>
   <g id="text_2">
    <g id="patch_21">
     <path d="M 369.368336 473.84341 
L 380.558807 462.867788 
Q 382.058054 461.397325 380.587592 459.898079 
L 375.843819 455.061446 
Q 374.373357 453.5622 372.87411 455.032662 
L 361.683639 466.008284 
Q 360.184392 467.478747 361.654855 468.977993 
L 366.398627 473.814626 
Q 367.86909 475.313872 369.368336 473.84341 
z
" clip-path="url(#peab9f40786)" style="fill: #ffffff; stroke: #ffffff; stroke-linejoin: miter"/>
    </g>
    <g clip-path="url(#peab9f40786)">
     <!-- calls -->
     <g style="fill: #8b0000" transform="translate(366.878507 471.304842) rotate(-44.444669) scale(0.07 -0.07)">
      <use xlink:href="#DejaVuSans-63"/>
      <use xlink:href="#DejaVuSans-61" transform="translate(54.980469 0)"/>
      <use xlink:href="#DejaVuSans-6c" transform="translate(116.259766 0)"/>
      <use xlink:href="#DejaVuSans-6c" transform="translate(144.042969 0)"/>
      <use xlink:href="#DejaVuSans-73" transform="translate(171.826172 0)"/>
     </g>
    </g>
   </g>
   <g id="text_3">
    <g id="patch_22">
     <path d="M 701.534793 329.510272 
L 717.206406 329.207809 
Q 719.306015 329.167286 719.265492 327.067677 
L 719.134765 320.294251 
Q 719.094242 318.194642 716.994633 318.235165 
L 701.32302 318.537628 
Q 699.223411 318.57815 699.263934 320.677759 
L 699.394662 327.451185 
Q 699.435184 329.550794 701.534793 329.510272 
z
" clip-path="url(#peab9f40786)" style="fill: #ffffff; stroke: #ffffff; stroke-linejoin: miter"/>
    </g>
    <g clip-path="url(#peab9f40786)">
     <!-- calls -->
     <g style="fill: #8b0000" transform="translate(701.466179 325.955153) rotate(-1.105675) scale(0.07 -0.07)">
      <use xlink:href="#DejaVuSans-63"/>
      <use xlink:href="#DejaVuSans-61" transform="translate(54.980469 0)"/>
      <use xlink:href="#DejaVuSans-6c" transform="translate(116.259766 0)"/>
      <use xlink:href="#DejaVuSans-6c" transform="translate(144.042969 0)"/>
      <use xlink:href="#DejaVuSans-73" transform="translate(171.826172 0)"/>
     </g>
    </g>
   </g>
   <g id="text_4">
    <g id="patch_23">
     <path d="M 298.269059 288.954235 
L 313.612101 292.160789 
Q 315.667689 292.590388 316.097288 290.534799 
L 317.483193 283.903384 
Q 317.912792 281.847796 315.857203 281.418197 
L 300.514161 278.211643 
Q 298.458572 277.782044 298.028973 279.837633 
L 296.643069 286.469048 
Q 296.21347 288.524636 298.269059 288.954235 
z
" clip-path="url(#peab9f40786)" style="fill: #ffffff; stroke: #ffffff; stroke-linejoin: miter"/>
    </g>
    <g clip-path="url(#peab9f40786)">
     <!-- calls -->
     <g style="fill: #8b0000" transform="translate(298.996468 285.473652) rotate(-348.195617) scale(0.07 -0.07)">
      <use xlink:href="#DejaVuSans-63"/>
      <use xlink:href="#DejaVuSans-61" transform="translate(54.980469 0)"/>
      <use xlink:href="#DejaVuSans-6c" transform="translate(116.259766 0)"/>
      <use xlink:href="#DejaVuSans-6c" transform="translate(144.042969 0)"/>
      <use xlink:href="#DejaVuSans-73" transform="translate(171.826172 0)"/>
     </g>
    </g>
   </g>
   <g id="text_5">
    <g id="patch_24">
     <path d="M 294.016196 340.542841 
L 309.681718 340.011472 
Q 311.780511 339.940282 311.709321 337.841489 
L 311.479658 331.070696 
Q 311.408468 328.971903 309.309675 329.043093 
L 293.644153 329.574462 
Q 291.54536 329.645652 291.61655 331.744445 
L 291.846213 338.515239 
Q 291.917403 340.614032 294.016196 340.542841 
z
" clip-path="url(#peab9f40786)" style="fill: #ffffff; stroke: #ffffff; stroke-linejoin: miter"/>
    </g>
    <g clip-path="url(#peab9f40786)">
     <!-- calls -->
     <g style="fill: #8b0000" transform="translate(293.895655 336.989104) rotate(-1.942707) scale(0.07 -0.07)">
      <use xlink:href="#DejaVuSans-63"/>
      <use xlink:href="#DejaVuSans-61" transform="translate(54.980469 0)"/>
      <use xlink:href="#DejaVuSans-6c" transform="translate(116.259766 0)"/>
      <use xlink:href="#DejaVuSans-6c" transform="translate(144.042969 0)"/>
      <use xlink:href="#DejaVuSans-73" transform="translate(171.826172 0)"/>
     </g>
    </g>
   </g>
   <g id="text_6">
    <g id="patch_25">
     <path d="M 395.350521 214.637232 
L 406.156074 225.992009 
Q 407.603751 227.513269 409.125011 226.065591 
L 414.032657 221.395324 
Q 415.553917 219.947647 414.10624 218.426388 
L 403.300687 207.071611 
Q 401.85301 205.550351 400.33175 206.998029 
L 395.424103 211.668296 
Q 393.902844 213.115973 395.350521 214.637232 
z
" clip-path="url(#peab9f40786)" style="fill: #ffffff; stroke: #ffffff; stroke-linejoin: miter"/>
    </g>
    <g clip-path="url(#peab9f40786)">
     <!-- calls -->
     <g style="fill: #8b0000" transform="translate(397.926362 212.185983) rotate(-313.580267) scale(0.07 -0.07)">
      <use xlink:href="#DejaVuSans-63"/>
      <use xlink:href="#DejaVuSans-61" transform="translate(54.980469 0)"/>
      <use xlink:href="#DejaVuSans-6c" transform="translate(116.259766 0)"/>
      <use xlink:href="#DejaVuSans-6c" transform="translate(144.042969 0)"/>
      <use xlink:href="#DejaVuSans-73" transform="translate(171.826172 0)"/>
     </g>
    </g>
   </g>
   <g id="text_7">
    <g id="patch_26">
     <path d="M 305.403296 388.776376 
L 320.535932 384.690515 
Q 322.563332 384.14311 322.015927 382.115711 
L 320.249978 375.575236 
Q 319.702573 373.547836 317.675174 374.095241 
L 302.542538 378.181102 
Q 300.515139 378.728506 301.062543 380.755906 
L 302.828493 387.296381 
Q 303.375897 389.32378 305.403296 388.776376 
z
" clip-path="url(#peab9f40786)" style="fill: #ffffff; stroke: #ffffff; stroke-linejoin: miter"/>
    </g>
    <g clip-path="url(#peab9f40786)">
     <!-- calls -->
     <g style="fill: #8b0000" transform="translate(304.476415 385.343524) rotate(-15.109749) scale(0.07 -0.07)">
      <use xlink:href="#DejaVuSans-63"/>
      <use xlink:href="#DejaVuSans-61" transform="translate(54.980469 0)"/>
      <use xlink:href="#DejaVuSans-6c" transform="translate(116.259766 0)"/>
      <use xlink:href="#DejaVuSans-6c" transform="translate(144.042969 0)"/>
      <use xlink:href="#DejaVuSans-73" transform="translate(171.826172 0)"/>
     </g>
    </g>
   </g>
   <g id="text_8">
    <g id="patch_27">
     <path d="M 654.047302 384.657684 
L 669.503876 387.262536 
Q 671.574675 387.611522 671.923661 385.540723 
L 673.049504 378.860238 
Q 673.39849 376.789439 671.327691 376.440454 
L 655.871117 373.835602 
Q 653.800318 373.486616 653.451332 375.557415 
L 652.325489 382.237899 
Q 651.976503 384.308698 654.047302 384.657684 
z
" clip-path="url(#peab9f40786)" style="fill: #ffffff; stroke: #ffffff; stroke-linejoin: miter"/>
    </g>
    <g clip-path="url(#peab9f40786)">
     <!-- calls -->
     <g style="fill: #8b0000" transform="translate(654.638215 381.151347) rotate(-350.433994) scale(0.07 -0.07)">
      <use xlink:href="#DejaVuSans-63"/>
      <use xlink:href="#DejaVuSans-61" transform="translate(54.980469 0)"/>
      <use xlink:href="#DejaVuSans-6c" transform="translate(116.259766 0)"/>
      <use xlink:href="#DejaVuSans-6c" transform="translate(144.042969 0)"/>
      <use xlink:href="#DejaVuSans-73" transform="translate(171.826172 0)"/>
     </g>
    </g>
   </g>
   <g id="text_9">
    <g id="patch_28">
     <path d="M 659.945125 284.893674 
L 675.000446 280.531538 
Q 677.017487 279.947119 676.433069 277.930078 
L 674.54771 271.423019 
Q 673.963292 269.405978 671.946251 269.990397 
L 656.890929 274.352532 
Q 654.873888 274.936951 655.458307 276.953992 
L 657.343665 283.461051 
Q 657.928083 285.478092 659.945125 284.893674 
z
" clip-path="url(#peab9f40786)" style="fill: #ffffff; stroke: #ffffff; stroke-linejoin: miter"/>
    </g>
    <g clip-path="url(#peab9f40786)">
     <!-- calls -->
     <g style="fill: #8b0000" transform="translate(658.95557 281.478361) rotate(-16.158441) scale(0.07 -0.07)">
      <use xlink:href="#DejaVuSans-63"/>
      <use xlink:href="#DejaVuSans-61" transform="translate(54.980469 0)"/>
      <use xlink:href="#DejaVuSans-6c" transform="translate(116.259766 0)"/>
      <use xlink:href="#DejaVuSans-6c" transform="translate(144.042969 0)"/>
      <use xlink:href="#DejaVuSans-73" transform="translate(171.826172 0)"/>
     </g>
    </g>
   </g>
   <g id="text_10">
    <g id="patch_29">
     <path d="M 645.720299 425.700713 
L 678.771544 438.035187 
Q 680.739002 438.769427 681.473243 436.801969 
L 683.841933 430.454868 
Q 684.576173 428.48741 682.608715 427.753169 
L 649.55747 415.418695 
Q 647.590012 414.684455 646.855772 416.651913 
L 644.487082 422.999015 
Q 643.752841 424.966473 645.720299 425.700713 
z
" clip-path="url(#peab9f40786)" style="fill: #ffffff; stroke: #ffffff; stroke-linejoin: miter"/>
    </g>
    <g clip-path="url(#peab9f40786)">
     <!-- composes -->
     <g style="fill: #8b0000" transform="translate(646.963536 422.369356) rotate(-339.534808) scale(0.07 -0.07)">
      <defs>
       <path id="DejaVuSans-6f" d="M 1959 3097 
Q 1497 3097 1228 2736 
Q 959 2375 959 1747 
Q 959 1119 1226 758 
Q 1494 397 1959 397 
Q 2419 397 2687 759 
Q 2956 1122 2956 1747 
Q 2956 2369 2687 2733 
Q 2419 3097 1959 3097 
z
M 1959 3584 
Q 2709 3584 3137 3096 
Q 3566 2609 3566 1747 
Q 3566 888 3137 398 
Q 2709 -91 1959 -91 
Q 1206 -91 779 398 
Q 353 888 353 1747 
Q 353 2609 779 3096 
Q 1206 3584 1959 3584 
z
" transform="scale(0.015625)"/>
       <path id="DejaVuSans-6d" d="M 3328 2828 
Q 3544 3216 3844 3400 
Q 4144 3584 4550 3584 
Q 5097 3584 5394 3201 
Q 5691 2819 5691 2113 
L 5691 0 
L 5113 0 
L 5113 2094 
Q 5113 2597 4934 2840 
Q 4756 3084 4391 3084 
Q 3944 3084 3684 2787 
Q 3425 2491 3425 1978 
L 3425 0 
L 2847 0 
L 2847 2094 
Q 2847 2600 2669 2842 
Q 2491 3084 2119 3084 
Q 1678 3084 1418 2786 
Q 1159 2488 1159 1978 
L 1159 0 
L 581 0 
L 581 3500 
L 1159 3500 
L 1159 2956 
Q 1356 3278 1631 3431 
Q 1906 3584 2284 3584 
Q 2666 3584 2933 3390 
Q 3200 3197 3328 2828 
z
" transform="scale(0.015625)"/>
       <path id="DejaVuSans-70" d="M 1159 525 
L 1159 -1331 
L 581 -1331 
L 581 3500 
L 1159 3500 
L 1159 2969 
Q 1341 3281 1617 3432 
Q 1894 3584 2278 3584 
Q 2916 3584 3314 3078 
Q 3713 2572 3713 1747 
Q 3713 922 3314 415 
Q 2916 -91 2278 -91 
Q 1894 -91 1617 61 
Q 1341 213 1159 525 
z
M 3116 1747 
Q 3116 2381 2855 2742 
Q 2594 3103 2138 3103 
Q 1681 3103 1420 2742 
Q 1159 2381 1159 1747 
Q 1159 1113 1420 752 
Q 1681 391 2138 391 
Q 2594 391 2855 752 
Q 3116 1113 3116 1747 
z
" transform="scale(0.015625)"/>
       <path id="DejaVuSans-65" d="M 3597 1894 
L 3597 1613 
L 953 1613 
Q 991 1019 1311 708 
Q 1631 397 2203 397 
Q 2534 397 2845 478 
Q 3156 559 3463 722 
L 3463 178 
Q 3153 47 2828 -22 
Q 2503 -91 2169 -91 
Q 1331 -91 842 396 
Q 353 884 353 1716 
Q 353 2575 817 3079 
Q 1281 3584 2069 3584 
Q 2775 3584 3186 3129 
Q 3597 2675 3597 1894 
z
M 3022 2063 
Q 3016 2534 2758 2815 
Q 2500 3097 2075 3097 
Q 1594 3097 1305 2825 
Q 1016 2553 972 2059 
L 3022 2063 
z
" transform="scale(0.015625)"/>
      </defs>
      <use xlink:href="#DejaVuSans-63"/>
      <use xlink:href="#DejaVuSans-6f" transform="translate(54.980469 0)"/>
      <use xlink:href="#DejaVuSans-6d" transform="translate(116.162109 0)"/>
      <use xlink:href="#DejaVuSans-70" transform="translate(213.574219 0)"/>
      <use xlink:href="#DejaVuSans-6f" transform="translate(277.050781 0)"/>
      <use xlink:href="#DejaVuSans-73" transform="translate(338.232422 0)"/>
      <use xlink:href="#DejaVuSans-65" transform="translate(390.332031 0)"/>
      <use xlink:href="#DejaVuSans-73" transform="translate(451.855469 0)"/>
     </g>
    </g>
   </g>
   <g id="text_11">
    <g id="patch_30">
     <path d="M 393.609155 225.404788 
L 405.058929 258.772837 
Q 405.740505 260.759154 407.726822 260.077578 
L 414.134762 257.878784 
Q 416.121078 257.197207 415.439502 255.210891 
L 403.989728 221.842841 
Q 403.308151 219.856524 401.321835 220.538101 
L 394.913895 222.736895 
Q 392.927578 223.418471 393.609155 225.404788 
z
" clip-path="url(#peab9f40786)" style="fill: #ffffff; stroke: #ffffff; stroke-linejoin: miter"/>
    </g>
    <g clip-path="url(#peab9f40786)">
     <!-- composes -->
     <g style="fill: #8b0000" transform="translate(396.972444 224.250723) rotate(-288.938932) scale(0.07 -0.07)">
      <use xlink:href="#DejaVuSans-63"/>
      <use xlink:href="#DejaVuSans-6f" transform="translate(54.980469 0)"/>
      <use xlink:href="#DejaVuSans-6d" transform="translate(116.162109 0)"/>
      <use xlink:href="#DejaVuSans-70" transform="translate(213.574219 0)"/>
      <use xlink:href="#DejaVuSans-6f" transform="translate(277.050781 0)"/>
      <use xlink:href="#DejaVuSans-73" transform="translate(338.232422 0)"/>
      <use xlink:href="#DejaVuSans-65" transform="translate(390.332031 0)"/>
      <use xlink:href="#DejaVuSans-73" transform="translate(451.855469 0)"/>
     </g>
    </g>
   </g>
   <g id="text_12">
    <g id="patch_31">
     <path d="M 483.113137 232.177089 
L 494.439971 198.767108 
Q 495.11423 196.778295 493.125417 196.104037 
L 486.709424 193.928852 
Q 484.720612 193.254594 484.046353 195.243407 
L 472.719519 228.653388 
Q 472.045261 230.642201 474.034074 231.316459 
L 480.450066 233.491644 
Q 482.438879 234.165902 483.113137 232.177089 
z
" clip-path="url(#peab9f40786)" style="fill: #ffffff; stroke: #ffffff; stroke-linejoin: miter"/>
    </g>
    <g clip-path="url(#peab9f40786)">
     <!-- composes -->
     <g style="fill: #8b0000" transform="translate(479.745622 231.035416) rotate(-71.272033) scale(0.07 -0.07)">
      <use xlink:href="#DejaVuSans-63"/>
      <use xlink:href="#DejaVuSans-6f" transform="translate(54.980469 0)"/>
      <use xlink:href="#DejaVuSans-6d" transform="translate(116.162109 0)"/>
      <use xlink:href="#DejaVuSans-70" transform="translate(213.574219 0)"/>
      <use xlink:href="#DejaVuSans-6f" transform="translate(277.050781 0)"/>
      <use xlink:href="#DejaVuSans-73" transform="translate(338.232422 0)"/>
      <use xlink:href="#DejaVuSans-65" transform="translate(390.332031 0)"/>
      <use xlink:href="#DejaVuSans-73" transform="translate(451.855469 0)"/>
     </g>
    </g>
   </g>
   <g id="text_13">
    <g id="patch_32">
     <path d="M 551.379157 253.316989 
L 578.016024 230.186891 
Q 579.60165 228.810014 578.224773 227.224388 
L 573.782911 222.109092 
Q 572.406034 220.523466 570.820408 221.900343 
L 544.183541 245.030441 
Q 542.597915 246.407317 543.974792 247.992944 
L 548.416654 253.108239 
Q 549.793531 254.693865 551.379157 253.316989 
z
" clip-path="url(#peab9f40786)" style="fill: #ffffff; stroke: #ffffff; stroke-linejoin: miter"/>
    </g>
    <g clip-path="url(#peab9f40786)">
     <!-- composes -->
     <g style="fill: #8b0000" transform="translate(549.047789 250.63216) rotate(-40.969384) scale(0.07 -0.07)">
      <use xlink:href="#DejaVuSans-63"/>
      <use xlink:href="#DejaVuSans-6f" transform="translate(54.980469 0)"/>
      <use xlink:href="#DejaVuSans-6d" transform="translate(116.162109 0)"/>
      <use xlink:href="#DejaVuSans-70" transform="translate(213.574219 0)"/>
      <use xlink:href="#DejaVuSans-6f" transform="translate(277.050781 0)"/>
      <use xlink:href="#DejaVuSans-73" transform="translate(338.232422 0)"/>
      <use xlink:href="#DejaVuSans-65" transform="translate(390.332031 0)"/>
      <use xlink:href="#DejaVuSans-73" transform="translate(451.855469 0)"/>
     </g>
    </g>
   </g>
   <g id="text_14">
    <g id="patch_33">
     <path d="M 260.662309 399.136163 
L 294.618238 389.569611 
Q 296.63955 389.000138 296.070077 386.978826 
L 294.232933 380.457991 
Q 293.663461 378.436679 291.642149 379.006152 
L 257.68622 388.572705 
Q 255.664908 389.142177 256.234381 391.163489 
L 258.071524 397.684324 
Q 258.640997 399.705636 260.662309 399.136163 
z
" clip-path="url(#peab9f40786)" style="fill: #ffffff; stroke: #ffffff; stroke-linejoin: miter"/>
    </g>
    <g clip-path="url(#peab9f40786)">
     <!-- composes -->
     <g style="fill: #8b0000" transform="translate(259.698061 395.713619) rotate(-15.734352) scale(0.07 -0.07)">
      <use xlink:href="#DejaVuSans-63"/>
      <use xlink:href="#DejaVuSans-6f" transform="translate(54.980469 0)"/>
      <use xlink:href="#DejaVuSans-6d" transform="translate(116.162109 0)"/>
      <use xlink:href="#DejaVuSans-70" transform="translate(213.574219 0)"/>
      <use xlink:href="#DejaVuSans-6f" transform="translate(277.050781 0)"/>
      <use xlink:href="#DejaVuSans-73" transform="translate(338.232422 0)"/>
      <use xlink:href="#DejaVuSans-65" transform="translate(390.332031 0)"/>
      <use xlink:href="#DejaVuSans-73" transform="translate(451.855469 0)"/>
     </g>
    </g>
   </g>
   <g id="text_15">
    <g id="patch_34">
     <path d="M 526.515137 483.41324 
L 546.044162 512.792505 
Q 547.206676 514.541379 548.95555 513.378865 
L 554.597492 509.628547 
Q 556.346366 508.466033 555.183852 506.717158 
L 535.654827 477.337893 
Q 534.492312 475.589019 532.743438 476.751533 
L 527.101497 480.501852 
Q 525.352623 481.664366 526.515137 483.41324 
z
" clip-path="url(#peab9f40786)" style="fill: #ffffff; stroke: #ffffff; stroke-linejoin: miter"/>
    </g>
    <g clip-path="url(#peab9f40786)">
     <!-- composes -->
     <g style="fill: #8b0000" transform="translate(529.476382 481.444837) rotate(-303.612835) scale(0.07 -0.07)">
      <use xlink:href="#DejaVuSans-63"/>
      <use xlink:href="#DejaVuSans-6f" transform="translate(54.980469 0)"/>
      <use xlink:href="#DejaVuSans-6d" transform="translate(116.162109 0)"/>
      <use xlink:href="#DejaVuSans-70" transform="translate(213.574219 0)"/>
      <use xlink:href="#DejaVuSans-6f" transform="translate(277.050781 0)"/>
      <use xlink:href="#DejaVuSans-73" transform="translate(338.232422 0)"/>
      <use xlink:href="#DejaVuSans-65" transform="translate(390.332031 0)"/>
      <use xlink:href="#DejaVuSans-73" transform="translate(451.855469 0)"/>
     </g>
    </g>
   </g>
   <g id="text_16">
    <g id="patch_35">
     <path d="M 406.189493 512.70165 
L 414.127792 478.328587 
Q 414.600339 476.282445 412.554197 475.809897 
L 405.953256 474.285441 
Q 403.907113 473.812894 403.434566 475.859036 
L 395.496267 510.232099 
Q 395.02372 512.278242 397.069863 512.750789 
L 403.670804 514.275246 
Q 405.716946 514.747793 406.189493 512.70165 
z
" clip-path="url(#peab9f40786)" style="fill: #ffffff; stroke: #ffffff; stroke-linejoin: miter"/>
    </g>
    <g clip-path="url(#peab9f40786)">
     <!-- composes -->
     <g style="fill: #8b0000" transform="translate(402.724905 511.90152) rotate(-76.995804) scale(0.07 -0.07)">
      <use xlink:href="#DejaVuSans-63"/>
      <use xlink:href="#DejaVuSans-6f" transform="translate(54.980469 0)"/>
      <use xlink:href="#DejaVuSans-6d" transform="translate(116.162109 0)"/>
      <use xlink:href="#DejaVuSans-70" transform="translate(213.574219 0)"/>
      <use xlink:href="#DejaVuSans-6f" transform="translate(277.050781 0)"/>
      <use xlink:href="#DejaVuSans-73" transform="translate(338.232422 0)"/>
      <use xlink:href="#DejaVuSans-65" transform="translate(390.332031 0)"/>
      <use xlink:href="#DejaVuSans-73" transform="translate(451.855469 0)"/>
     </g>
    </g>
   </g>
   <g id="text_17">
    <g id="patch_36">
     <path d="M 280.477629 447.26951 
L 310.536238 428.803214 
Q 312.325552 427.703962 311.2263 425.914648 
L 307.680066 420.142247 
Q 306.580813 418.352933 304.791499 419.452186 
L 274.73289 437.918481 
Q 272.943576 439.017734 274.042829 440.807047 
L 277.589063 446.579449 
Q 278.688315 448.368762 280.477629 447.26951 
z
" clip-path="url(#peab9f40786)" style="fill: #ffffff; stroke: #ffffff; stroke-linejoin: miter"/>
    </g>
    <g clip-path="url(#peab9f40786)">
     <!-- composes -->
     <g style="fill: #8b0000" transform="translate(278.616343 444.239792) rotate(-31.564194) scale(0.07 -0.07)">
      <use xlink:href="#DejaVuSans-63"/>
      <use xlink:href="#DejaVuSans-6f" transform="translate(54.980469 0)"/>
      <use xlink:href="#DejaVuSans-6d" transform="translate(116.162109 0)"/>
      <use xlink:href="#DejaVuSans-70" transform="translate(213.574219 0)"/>
      <use xlink:href="#DejaVuSans-6f" transform="translate(277.050781 0)"/>
      <use xlink:href="#DejaVuSans-73" transform="translate(338.232422 0)"/>
      <use xlink:href="#DejaVuSans-65" transform="translate(390.332031 0)"/>
      <use xlink:href="#DejaVuSans-73" transform="translate(451.855469 0)"/>
     </g>
    </g>
   </g>
   <g id="text_18">
    <g id="patch_37">
     <path d="M 589.591708 459.472764 
L 618.056877 480.311628 
Q 619.751337 481.552113 620.991823 479.857653 
L 624.99368 474.391253 
Q 626.234166 472.696793 624.539706 471.456307 
L 596.074537 450.617444 
Q 594.380077 449.376958 593.139591 451.071419 
L 589.137733 456.537818 
Q 587.897248 458.232279 589.591708 459.472764 
z
" clip-path="url(#peab9f40786)" style="fill: #ffffff; stroke: #ffffff; stroke-linejoin: miter"/>
    </g>
    <g clip-path="url(#peab9f40786)">
     <!-- composes -->
     <g style="fill: #8b0000" transform="translate(591.692134 456.603655) rotate(-323.792779) scale(0.07 -0.07)">
      <use xlink:href="#DejaVuSans-63"/>
      <use xlink:href="#DejaVuSans-6f" transform="translate(54.980469 0)"/>
      <use xlink:href="#DejaVuSans-6d" transform="translate(116.162109 0)"/>
      <use xlink:href="#DejaVuSans-70" transform="translate(213.574219 0)"/>
      <use xlink:href="#DejaVuSans-6f" transform="translate(277.050781 0)"/>
      <use xlink:href="#DejaVuSans-73" transform="translate(338.232422 0)"/>
      <use xlink:href="#DejaVuSans-65" transform="translate(390.332031 0)"/>
      <use xlink:href="#DejaVuSans-73" transform="translate(451.855469 0)"/>
     </g>
    </g>
   </g>
   <g id="PathCollection_1"/>
   <g id="PathCollection_2"/>
   <g id="PathCollection_3">
    <defs>
     <path id="mde21bd5c0d" d="M -25 25 
L 25 25 
L 25 -25 
L -25 -25 
z
" style="stroke: #add8e6; stroke-opacity: 0.8"/>
    </defs>
    <g clip-path="url(#peab9f40786)">
     <use xlink:href="#mde21bd5c0d" x="510.52739" y="327.70836" style="fill: #add8e6; fill-opacity: 0.8; stroke: #add8e6; stroke-opacity: 0.8"/>
     <use xlink:href="#mde21bd5c0d" x="439.754416" y="342.978799" style="fill: #add8e6; fill-opacity: 0.8; stroke: #add8e6; stroke-opacity: 0.8"/>
    </g>
   </g>
   <g id="PathCollection_4">
    <defs>
     <path id="m51cade3f73" d="M 0 22.36068 
C 5.930122 22.36068 11.618159 20.004617 15.811388 15.811388 
C 20.004617 11.618159 22.36068 5.930122 22.36068 0 
C 22.36068 -5.930122 20.004617 -11.618159 15.811388 -15.811388 
C 11.618159 -20.004617 5.930122 -22.36068 0 -22.36068 
C -5.930122 -22.36068 -11.618159 -20.004617 -15.811388 -15.811388 
C -20.004617 -11.618159 -22.36068 -5.930122 -22.36068 0 
C -22.36068 5.930122 -20.004617 11.618159 -15.811388 15.811388 
C -11.618159 20.004617 -5.930122 22.36068 0 22.36068 
z
" style="stroke: #90ee90; stroke-opacity: 0.8"/>
    </defs>
    <g clip-path="url(#peab9f40786)">
     <use xlink:href="#m51cade3f73" x="527.404929" y="84.442128" style="fill: #90ee90; fill-opacity: 0.8; stroke: #90ee90; stroke-opacity: 0.8"/>
     <use xlink:href="#m51cade3f73" x="908.003306" y="320.037052" style="fill: #90ee90; fill-opacity: 0.8; stroke: #90ee90; stroke-opacity: 0.8"/>
     <use xlink:href="#m51cade3f73" x="231.714923" y="601.167843" style="fill: #90ee90; fill-opacity: 0.8; stroke: #90ee90; stroke-opacity: 0.8"/>
     <use xlink:href="#m51cade3f73" x="103.599217" y="242.664144" style="fill: #90ee90; fill-opacity: 0.8; stroke: #90ee90; stroke-opacity: 0.8"/>
     <use xlink:href="#m51cade3f73" x="888.575925" y="510.475578" style="fill: #90ee90; fill-opacity: 0.8; stroke: #90ee90; stroke-opacity: 0.8"/>
     <use xlink:href="#m51cade3f73" x="145.515919" y="523.742155" style="fill: #90ee90; fill-opacity: 0.8; stroke: #90ee90; stroke-opacity: 0.8"/>
     <use xlink:href="#m51cade3f73" x="369.294942" y="137.638923" style="fill: #90ee90; fill-opacity: 0.8; stroke: #90ee90; stroke-opacity: 0.8"/>
     <use xlink:href="#m51cade3f73" x="509.515053" y="633.54294" style="fill: #90ee90; fill-opacity: 0.8; stroke: #90ee90; stroke-opacity: 0.8"/>
     <use xlink:href="#m51cade3f73" x="774.376068" y="587.949592" style="fill: #90ee90; fill-opacity: 0.8; stroke: #90ee90; stroke-opacity: 0.8"/>
     <use xlink:href="#m51cade3f73" x="112.548298" y="435.164008" style="fill: #90ee90; fill-opacity: 0.8; stroke: #90ee90; stroke-opacity: 0.8"/>
     <use xlink:href="#m51cade3f73" x="682.449293" y="132.234935" style="fill: #90ee90; fill-opacity: 0.8; stroke: #90ee90; stroke-opacity: 0.8"/>
     <use xlink:href="#m51cade3f73" x="92.796694" y="341.877635" style="fill: #90ee90; fill-opacity: 0.8; stroke: #90ee90; stroke-opacity: 0.8"/>
     <use xlink:href="#m51cade3f73" x="641.945419" y="647.152872" style="fill: #90ee90; fill-opacity: 0.8; stroke: #90ee90; stroke-opacity: 0.8"/>
     <use xlink:href="#m51cade3f73" x="885.617094" y="418.118752" style="fill: #90ee90; fill-opacity: 0.8; stroke: #90ee90; stroke-opacity: 0.8"/>
     <use xlink:href="#m51cade3f73" x="298.928371" y="105.354209" style="fill: #90ee90; fill-opacity: 0.8; stroke: #90ee90; stroke-opacity: 0.8"/>
     <use xlink:href="#m51cade3f73" x="892.132961" y="211.90643" style="fill: #90ee90; fill-opacity: 0.8; stroke: #90ee90; stroke-opacity: 0.8"/>
     <use xlink:href="#m51cade3f73" x="369.870051" y="645.580122" style="fill: #90ee90; fill-opacity: 0.8; stroke: #90ee90; stroke-opacity: 0.8"/>
    </g>
   </g>
   <g id="text_19">
    <g clip-path="url(#peab9f40786)">
     <!-- get_status -->
     <g transform="translate(503.784929 86.427128) scale(0.08 -0.08)">
      <defs>
       <path id="DejaVuSans-Bold-67" d="M 2919 594 
Q 2688 288 2409 144 
Q 2131 0 1766 0 
Q 1125 0 706 504 
Q 288 1009 288 1791 
Q 288 2575 706 3076 
Q 1125 3578 1766 3578 
Q 2131 3578 2409 3434 
Q 2688 3291 2919 2981 
L 2919 3500 
L 4044 3500 
L 4044 353 
Q 4044 -491 3511 -936 
Q 2978 -1381 1966 -1381 
Q 1638 -1381 1331 -1331 
Q 1025 -1281 716 -1178 
L 716 -306 
Q 1009 -475 1290 -558 
Q 1572 -641 1856 -641 
Q 2406 -641 2662 -400 
Q 2919 -159 2919 353 
L 2919 594 
z
M 2181 2772 
Q 1834 2772 1640 2515 
Q 1447 2259 1447 1791 
Q 1447 1309 1634 1061 
Q 1822 813 2181 813 
Q 2531 813 2725 1069 
Q 2919 1325 2919 1791 
Q 2919 2259 2725 2515 
Q 2531 2772 2181 2772 
z
" transform="scale(0.015625)"/>
       <path id="DejaVuSans-Bold-65" d="M 4031 1759 
L 4031 1441 
L 1416 1441 
Q 1456 1047 1700 850 
Q 1944 653 2381 653 
Q 2734 653 3104 758 
Q 3475 863 3866 1075 
L 3866 213 
Q 3469 63 3072 -14 
Q 2675 -91 2278 -91 
Q 1328 -91 801 392 
Q 275 875 275 1747 
Q 275 2603 792 3093 
Q 1309 3584 2216 3584 
Q 3041 3584 3536 3087 
Q 4031 2591 4031 1759 
z
M 2881 2131 
Q 2881 2450 2695 2645 
Q 2509 2841 2209 2841 
Q 1884 2841 1681 2658 
Q 1478 2475 1428 2131 
L 2881 2131 
z
" transform="scale(0.015625)"/>
       <path id="DejaVuSans-Bold-74" d="M 1759 4494 
L 1759 3500 
L 2913 3500 
L 2913 2700 
L 1759 2700 
L 1759 1216 
Q 1759 972 1856 886 
Q 1953 800 2241 800 
L 2816 800 
L 2816 0 
L 1856 0 
Q 1194 0 917 276 
Q 641 553 641 1216 
L 641 2700 
L 84 2700 
L 84 3500 
L 641 3500 
L 641 4494 
L 1759 4494 
z
" transform="scale(0.015625)"/>
       <path id="DejaVuSans-Bold-5f" d="M 3200 -916 
L 3200 -1509 
L 0 -1509 
L 0 -916 
L 3200 -916 
z
" transform="scale(0.015625)"/>
       <path id="DejaVuSans-Bold-73" d="M 3272 3391 
L 3272 2541 
Q 2913 2691 2578 2766 
Q 2244 2841 1947 2841 
Q 1628 2841 1473 2761 
Q 1319 2681 1319 2516 
Q 1319 2381 1436 2309 
Q 1553 2238 1856 2203 
L 2053 2175 
Q 2913 2066 3209 1816 
Q 3506 1566 3506 1031 
Q 3506 472 3093 190 
Q 2681 -91 1863 -91 
Q 1516 -91 1145 -36 
Q 775 19 384 128 
L 384 978 
Q 719 816 1070 734 
Q 1422 653 1784 653 
Q 2113 653 2278 743 
Q 2444 834 2444 1013 
Q 2444 1163 2330 1236 
Q 2216 1309 1875 1350 
L 1678 1375 
Q 931 1469 631 1722 
Q 331 1975 331 2491 
Q 331 3047 712 3315 
Q 1094 3584 1881 3584 
Q 2191 3584 2531 3537 
Q 2872 3491 3272 3391 
z
" transform="scale(0.015625)"/>
       <path id="DejaVuSans-Bold-61" d="M 2106 1575 
Q 1756 1575 1579 1456 
Q 1403 1338 1403 1106 
Q 1403 894 1545 773 
Q 1688 653 1941 653 
Q 2256 653 2472 879 
Q 2688 1106 2688 1447 
L 2688 1575 
L 2106 1575 
z
M 3816 1997 
L 3816 0 
L 2688 0 
L 2688 519 
Q 2463 200 2181 54 
Q 1900 -91 1497 -91 
Q 953 -91 614 226 
Q 275 544 275 1050 
Q 275 1666 698 1953 
Q 1122 2241 2028 2241 
L 2688 2241 
L 2688 2328 
Q 2688 2594 2478 2717 
Q 2269 2841 1825 2841 
Q 1466 2841 1156 2769 
Q 847 2697 581 2553 
L 581 3406 
Q 941 3494 1303 3539 
Q 1666 3584 2028 3584 
Q 2975 3584 3395 3211 
Q 3816 2838 3816 1997 
z
" transform="scale(0.015625)"/>
       <path id="DejaVuSans-Bold-75" d="M 500 1363 
L 500 3500 
L 1625 3500 
L 1625 3150 
Q 1625 2866 1622 2436 
Q 1619 2006 1619 1863 
Q 1619 1441 1641 1255 
Q 1663 1069 1716 984 
Q 1784 875 1895 815 
Q 2006 756 2150 756 
Q 2500 756 2700 1025 
Q 2900 1294 2900 1772 
L 2900 3500 
L 4019 3500 
L 4019 0 
L 2900 0 
L 2900 506 
Q 2647 200 2364 54 
Q 2081 -91 1741 -91 
Q 1134 -91 817 281 
Q 500 653 500 1363 
z
" transform="scale(0.015625)"/>
      </defs>
      <use xlink:href="#DejaVuSans-Bold-67"/>
      <use xlink:href="#DejaVuSans-Bold-65" transform="translate(71.582031 0)"/>
      <use xlink:href="#DejaVuSans-Bold-74" transform="translate(139.404297 0)"/>
      <use xlink:href="#DejaVuSans-Bold-5f" transform="translate(187.207031 0)"/>
      <use xlink:href="#DejaVuSans-Bold-73" transform="translate(237.207031 0)"/>
      <use xlink:href="#DejaVuSans-Bold-74" transform="translate(296.728516 0)"/>
      <use xlink:href="#DejaVuSans-Bold-61" transform="translate(344.53125 0)"/>
      <use xlink:href="#DejaVuSans-Bold-74" transform="translate(412.011719 0)"/>
      <use xlink:href="#DejaVuSans-Bold-75" transform="translate(459.814453 0)"/>
      <use xlink:href="#DejaVuSans-Bold-73" transform="translate(531.005859 0)"/>
     </g>
    </g>
   </g>
   <g id="text_20">
    <g clip-path="url(#peab9f40786)">
     <!-- generate_order_status -->
     <g transform="translate(857.168306 322.133302) scale(0.08 -0.08)">
      <defs>
       <path id="DejaVuSans-Bold-6e" d="M 4056 2131 
L 4056 0 
L 2931 0 
L 2931 347 
L 2931 1631 
Q 2931 2084 2911 2256 
Q 2891 2428 2841 2509 
Q 2775 2619 2662 2680 
Q 2550 2741 2406 2741 
Q 2056 2741 1856 2470 
Q 1656 2200 1656 1722 
L 1656 0 
L 538 0 
L 538 3500 
L 1656 3500 
L 1656 2988 
Q 1909 3294 2193 3439 
Q 2478 3584 2822 3584 
Q 3428 3584 3742 3212 
Q 4056 2841 4056 2131 
z
" transform="scale(0.015625)"/>
       <path id="DejaVuSans-Bold-72" d="M 3138 2547 
Q 2991 2616 2845 2648 
Q 2700 2681 2553 2681 
Q 2122 2681 1889 2404 
Q 1656 2128 1656 1613 
L 1656 0 
L 538 0 
L 538 3500 
L 1656 3500 
L 1656 2925 
Q 1872 3269 2151 3426 
Q 2431 3584 2822 3584 
Q 2878 3584 2943 3579 
Q 3009 3575 3134 3559 
L 3138 2547 
z
" transform="scale(0.015625)"/>
       <path id="DejaVuSans-Bold-6f" d="M 2203 2784 
Q 1831 2784 1636 2517 
Q 1441 2250 1441 1747 
Q 1441 1244 1636 976 
Q 1831 709 2203 709 
Q 2569 709 2762 976 
Q 2956 1244 2956 1747 
Q 2956 2250 2762 2517 
Q 2569 2784 2203 2784 
z
M 2203 3584 
Q 3106 3584 3614 3096 
Q 4122 2609 4122 1747 
Q 4122 884 3614 396 
Q 3106 -91 2203 -91 
Q 1297 -91 786 396 
Q 275 884 275 1747 
Q 275 2609 786 3096 
Q 1297 3584 2203 3584 
z
" transform="scale(0.015625)"/>
       <path id="DejaVuSans-Bold-64" d="M 2919 2988 
L 2919 4863 
L 4044 4863 
L 4044 0 
L 2919 0 
L 2919 506 
Q 2688 197 2409 53 
Q 2131 -91 1766 -91 
Q 1119 -91 703 423 
Q 288 938 288 1747 
Q 288 2556 703 3070 
Q 1119 3584 1766 3584 
Q 2128 3584 2408 3439 
Q 2688 3294 2919 2988 
z
M 2181 722 
Q 2541 722 2730 984 
Q 2919 1247 2919 1747 
Q 2919 2247 2730 2509 
Q 2541 2772 2181 2772 
Q 1825 2772 1636 2509 
Q 1447 2247 1447 1747 
Q 1447 1247 1636 984 
Q 1825 722 2181 722 
z
" transform="scale(0.015625)"/>
      </defs>
      <use xlink:href="#DejaVuSans-Bold-67"/>
      <use xlink:href="#DejaVuSans-Bold-65" transform="translate(71.582031 0)"/>
      <use xlink:href="#DejaVuSans-Bold-6e" transform="translate(139.404297 0)"/>
      <use xlink:href="#DejaVuSans-Bold-65" transform="translate(210.595703 0)"/>
      <use xlink:href="#DejaVuSans-Bold-72" transform="translate(278.417969 0)"/>
      <use xlink:href="#DejaVuSans-Bold-61" transform="translate(327.734375 0)"/>
      <use xlink:href="#DejaVuSans-Bold-74" transform="translate(395.214844 0)"/>
      <use xlink:href="#DejaVuSans-Bold-65" transform="translate(443.017578 0)"/>
      <use xlink:href="#DejaVuSans-Bold-5f" transform="translate(510.839844 0)"/>
      <use xlink:href="#DejaVuSans-Bold-6f" transform="translate(560.839844 0)"/>
      <use xlink:href="#DejaVuSans-Bold-72" transform="translate(629.541016 0)"/>
      <use xlink:href="#DejaVuSans-Bold-64" transform="translate(678.857422 0)"/>
      <use xlink:href="#DejaVuSans-Bold-65" transform="translate(750.439453 0)"/>
      <use xlink:href="#DejaVuSans-Bold-72" transform="translate(818.261719 0)"/>
      <use xlink:href="#DejaVuSans-Bold-5f" transform="translate(867.578125 0)"/>
      <use xlink:href="#DejaVuSans-Bold-73" transform="translate(917.578125 0)"/>
      <use xlink:href="#DejaVuSans-Bold-74" transform="translate(977.099609 0)"/>
      <use xlink:href="#DejaVuSans-Bold-61" transform="translate(1024.902344 0)"/>
      <use xlink:href="#DejaVuSans-Bold-74" transform="translate(1092.382812 0)"/>
      <use xlink:href="#DejaVuSans-Bold-75" transform="translate(1140.185547 0)"/>
      <use xlink:href="#DejaVuSans-Bold-73" transform="translate(1211.376953 0)"/>
     </g>
    </g>
   </g>
   <g id="text_21">
    <g clip-path="url(#peab9f40786)">
     <!-- OrderAgent -->
     <g transform="translate(205.361798 603.344093) scale(0.08 -0.08)">
      <defs>
       <path id="DejaVuSans-Bold-4f" d="M 2719 3878 
Q 2169 3878 1866 3472 
Q 1563 3066 1563 2328 
Q 1563 1594 1866 1187 
Q 2169 781 2719 781 
Q 3272 781 3575 1187 
Q 3878 1594 3878 2328 
Q 3878 3066 3575 3472 
Q 3272 3878 2719 3878 
z
M 2719 4750 
Q 3844 4750 4481 4106 
Q 5119 3463 5119 2328 
Q 5119 1197 4481 553 
Q 3844 -91 2719 -91 
Q 1597 -91 958 553 
Q 319 1197 319 2328 
Q 319 3463 958 4106 
Q 1597 4750 2719 4750 
z
" transform="scale(0.015625)"/>
       <path id="DejaVuSans-Bold-41" d="M 3419 850 
L 1538 850 
L 1241 0 
L 31 0 
L 1759 4666 
L 3194 4666 
L 4922 0 
L 3713 0 
L 3419 850 
z
M 1838 1716 
L 3116 1716 
L 2478 3572 
L 1838 1716 
z
" transform="scale(0.015625)"/>
      </defs>
      <use xlink:href="#DejaVuSans-Bold-4f"/>
      <use xlink:href="#DejaVuSans-Bold-72" transform="translate(85.009766 0)"/>
      <use xlink:href="#DejaVuSans-Bold-64" transform="translate(134.326172 0)"/>
      <use xlink:href="#DejaVuSans-Bold-65" transform="translate(205.908203 0)"/>
      <use xlink:href="#DejaVuSans-Bold-72" transform="translate(273.730469 0)"/>
      <use xlink:href="#DejaVuSans-Bold-41" transform="translate(323.046875 0)"/>
      <use xlink:href="#DejaVuSans-Bold-67" transform="translate(400.439453 0)"/>
      <use xlink:href="#DejaVuSans-Bold-65" transform="translate(472.021484 0)"/>
      <use xlink:href="#DejaVuSans-Bold-6e" transform="translate(539.84375 0)"/>
      <use xlink:href="#DejaVuSans-Bold-74" transform="translate(611.035156 0)"/>
     </g>
    </g>
   </g>
   <g id="text_22">
    <g clip-path="url(#peab9f40786)">
     <!-- input -->
     <g transform="translate(91.757967 244.871644) scale(0.08 -0.08)">
      <defs>
       <path id="DejaVuSans-Bold-69" d="M 538 3500 
L 1656 3500 
L 1656 0 
L 538 0 
L 538 3500 
z
M 538 4863 
L 1656 4863 
L 1656 3950 
L 538 3950 
L 538 4863 
z
" transform="scale(0.015625)"/>
       <path id="DejaVuSans-Bold-70" d="M 1656 506 
L 1656 -1331 
L 538 -1331 
L 538 3500 
L 1656 3500 
L 1656 2988 
Q 1888 3294 2169 3439 
Q 2450 3584 2816 3584 
Q 3463 3584 3878 3070 
Q 4294 2556 4294 1747 
Q 4294 938 3878 423 
Q 3463 -91 2816 -91 
Q 2450 -91 2169 54 
Q 1888 200 1656 506 
z
M 2400 2772 
Q 2041 2772 1848 2508 
Q 1656 2244 1656 1747 
Q 1656 1250 1848 986 
Q 2041 722 2400 722 
Q 2759 722 2948 984 
Q 3138 1247 3138 1747 
Q 3138 2247 2948 2509 
Q 2759 2772 2400 2772 
z
" transform="scale(0.015625)"/>
      </defs>
      <use xlink:href="#DejaVuSans-Bold-69"/>
      <use xlink:href="#DejaVuSans-Bold-6e" transform="translate(34.277344 0)"/>
      <use xlink:href="#DejaVuSans-Bold-70" transform="translate(105.46875 0)"/>
      <use xlink:href="#DejaVuSans-Bold-75" transform="translate(177.050781 0)"/>
      <use xlink:href="#DejaVuSans-Bold-74" transform="translate(248.242188 0)"/>
     </g>
    </g>
   </g>
   <g id="text_23">
    <g clip-path="url(#peab9f40786)">
     <!-- orders.jac\n(0 classes, 0 funcs) -->
     <g transform="translate(440.204265 329.88461) scale(0.08 -0.08)">
      <defs>
       <path id="DejaVuSans-Bold-2e" d="M 653 1209 
L 1778 1209 
L 1778 0 
L 653 0 
L 653 1209 
z
" transform="scale(0.015625)"/>
       <path id="DejaVuSans-Bold-6a" d="M 538 3500 
L 1656 3500 
L 1656 63 
Q 1656 -641 1318 -1011 
Q 981 -1381 341 -1381 
L -213 -1381 
L -213 -647 
L -19 -647 
Q 300 -647 419 -503 
Q 538 -359 538 63 
L 538 3500 
z
M 538 4863 
L 1656 4863 
L 1656 3950 
L 538 3950 
L 538 4863 
z
" transform="scale(0.015625)"/>
       <path id="DejaVuSans-Bold-63" d="M 3366 3391 
L 3366 2478 
Q 3138 2634 2908 2709 
Q 2678 2784 2431 2784 
Q 1963 2784 1702 2511 
Q 1441 2238 1441 1747 
Q 1441 1256 1702 982 
Q 1963 709 2431 709 
Q 2694 709 2930 787 
Q 3166 866 3366 1019 
L 3366 103 
Q 3103 6 2833 -42 
Q 2563 -91 2291 -91 
Q 1344 -91 809 395 
Q 275 881 275 1747 
Q 275 2613 809 3098 
Q 1344 3584 2291 3584 
Q 2566 3584 2833 3536 
Q 3100 3488 3366 3391 
z
" transform="scale(0.015625)"/>
       <path id="DejaVuSans-Bold-5c" d="M 1644 -594 
L 0 4666 
L 691 4666 
L 2338 -594 
L 1644 -594 
z
" transform="scale(0.015625)"/>
       <path id="DejaVuSans-Bold-28" d="M 2413 -844 
L 1484 -844 
Q 1006 -72 778 623 
Q 550 1319 550 2003 
Q 550 2688 779 3389 
Q 1009 4091 1484 4856 
L 2413 4856 
Q 2013 4116 1813 3408 
Q 1613 2700 1613 2009 
Q 1613 1319 1811 609 
Q 2009 -100 2413 -844 
z
" transform="scale(0.015625)"/>
       <path id="DejaVuSans-Bold-30" d="M 2944 2338 
Q 2944 3213 2780 3570 
Q 2616 3928 2228 3928 
Q 1841 3928 1675 3570 
Q 1509 3213 1509 2338 
Q 1509 1453 1675 1090 
Q 1841 728 2228 728 
Q 2613 728 2778 1090 
Q 2944 1453 2944 2338 
z
M 4147 2328 
Q 4147 1169 3647 539 
Q 3147 -91 2228 -91 
Q 1306 -91 806 539 
Q 306 1169 306 2328 
Q 306 3491 806 4120 
Q 1306 4750 2228 4750 
Q 3147 4750 3647 4120 
Q 4147 3491 4147 2328 
z
" transform="scale(0.015625)"/>
       <path id="DejaVuSans-Bold-20" transform="scale(0.015625)"/>
       <path id="DejaVuSans-Bold-6c" d="M 538 4863 
L 1656 4863 
L 1656 0 
L 538 0 
L 538 4863 
z
" transform="scale(0.015625)"/>
       <path id="DejaVuSans-Bold-2c" d="M 653 1209 
L 1778 1209 
L 1778 256 
L 1006 -909 
L 341 -909 
L 653 256 
L 653 1209 
z
" transform="scale(0.015625)"/>
       <path id="DejaVuSans-Bold-66" d="M 2841 4863 
L 2841 4128 
L 2222 4128 
Q 1984 4128 1890 4042 
Q 1797 3956 1797 3744 
L 1797 3500 
L 2753 3500 
L 2753 2700 
L 1797 2700 
L 1797 0 
L 678 0 
L 678 2700 
L 122 2700 
L 122 3500 
L 678 3500 
L 678 3744 
Q 678 4316 997 4589 
Q 1316 4863 1984 4863 
L 2841 4863 
z
" transform="scale(0.015625)"/>
       <path id="DejaVuSans-Bold-29" d="M 513 -844 
Q 913 -100 1113 609 
Q 1313 1319 1313 2009 
Q 1313 2700 1113 3408 
Q 913 4116 513 4856 
L 1441 4856 
Q 1916 4091 2145 3389 
Q 2375 2688 2375 2003 
Q 2375 1319 2147 623 
Q 1919 -72 1441 -844 
L 513 -844 
z
" transform="scale(0.015625)"/>
      </defs>
      <use xlink:href="#DejaVuSans-Bold-6f"/>
      <use xlink:href="#DejaVuSans-Bold-72" transform="translate(68.701172 0)"/>
      <use xlink:href="#DejaVuSans-Bold-64" transform="translate(118.017578 0)"/>
      <use xlink:href="#DejaVuSans-Bold-65" transform="translate(189.599609 0)"/>
      <use xlink:href="#DejaVuSans-Bold-72" transform="translate(257.421875 0)"/>
      <use xlink:href="#DejaVuSans-Bold-73" transform="translate(306.738281 0)"/>
      <use xlink:href="#DejaVuSans-Bold-2e" transform="translate(366.259766 0)"/>
      <use xlink:href="#DejaVuSans-Bold-6a" transform="translate(404.248047 0)"/>
      <use xlink:href="#DejaVuSans-Bold-61" transform="translate(438.525391 0)"/>
      <use xlink:href="#DejaVuSans-Bold-63" transform="translate(506.005859 0)"/>
      <use xlink:href="#DejaVuSans-Bold-5c" transform="translate(565.283203 0)"/>
      <use xlink:href="#DejaVuSans-Bold-6e" transform="translate(601.806641 0)"/>
      <use xlink:href="#DejaVuSans-Bold-28" transform="translate(672.998047 0)"/>
      <use xlink:href="#DejaVuSans-Bold-30" transform="translate(718.701172 0)"/>
      <use xlink:href="#DejaVuSans-Bold-20" transform="translate(788.28125 0)"/>
      <use xlink:href="#DejaVuSans-Bold-63" transform="translate(823.095703 0)"/>
      <use xlink:href="#DejaVuSans-Bold-6c" transform="translate(882.373047 0)"/>
      <use xlink:href="#DejaVuSans-Bold-61" transform="translate(916.650391 0)"/>
      <use xlink:href="#DejaVuSans-Bold-73" transform="translate(984.130859 0)"/>
      <use xlink:href="#DejaVuSans-Bold-73" transform="translate(1043.652344 0)"/>
      <use xlink:href="#DejaVuSans-Bold-65" transform="translate(1103.173828 0)"/>
      <use xlink:href="#DejaVuSans-Bold-73" transform="translate(1170.996094 0)"/>
      <use xlink:href="#DejaVuSans-Bold-2c" transform="translate(1230.517578 0)"/>
      <use xlink:href="#DejaVuSans-Bold-20" transform="translate(1268.505859 0)"/>
      <use xlink:href="#DejaVuSans-Bold-30" transform="translate(1303.320312 0)"/>
      <use xlink:href="#DejaVuSans-Bold-20" transform="translate(1372.900391 0)"/>
      <use xlink:href="#DejaVuSans-Bold-66" transform="translate(1407.714844 0)"/>
      <use xlink:href="#DejaVuSans-Bold-75" transform="translate(1451.220703 0)"/>
      <use xlink:href="#DejaVuSans-Bold-6e" transform="translate(1522.412109 0)"/>
      <use xlink:href="#DejaVuSans-Bold-63" transform="translate(1593.603516 0)"/>
      <use xlink:href="#DejaVuSans-Bold-73" transform="translate(1652.880859 0)"/>
      <use xlink:href="#DejaVuSans-Bold-29" transform="translate(1712.402344 0)"/>
     </g>
    </g>
   </g>
   <g id="text_24">
    <g clip-path="url(#peab9f40786)">
     <!-- orders.py\n(1 classes, 4 funcs) -->
     <g transform="translate(370.402541 345.155049) scale(0.08 -0.08)">
      <defs>
       <path id="DejaVuSans-Bold-79" d="M 78 3500 
L 1197 3500 
L 2138 1125 
L 2938 3500 
L 4056 3500 
L 2584 -331 
Q 2363 -916 2067 -1148 
Q 1772 -1381 1288 -1381 
L 641 -1381 
L 641 -647 
L 991 -647 
Q 1275 -647 1404 -556 
Q 1534 -466 1606 -231 
L 1638 -134 
L 78 3500 
z
" transform="scale(0.015625)"/>
       <path id="DejaVuSans-Bold-31" d="M 750 831 
L 1813 831 
L 1813 3847 
L 722 3622 
L 722 4441 
L 1806 4666 
L 2950 4666 
L 2950 831 
L 4013 831 
L 4013 0 
L 750 0 
L 750 831 
z
" transform="scale(0.015625)"/>
       <path id="DejaVuSans-Bold-34" d="M 2356 3675 
L 1038 1722 
L 2356 1722 
L 2356 3675 
z
M 2156 4666 
L 3494 4666 
L 3494 1722 
L 4159 1722 
L 4159 850 
L 3494 850 
L 3494 0 
L 2356 0 
L 2356 850 
L 288 850 
L 288 1881 
L 2156 4666 
z
" transform="scale(0.015625)"/>
      </defs>
      <use xlink:href="#DejaVuSans-Bold-6f"/>
      <use xlink:href="#DejaVuSans-Bold-72" transform="translate(68.701172 0)"/>
      <use xlink:href="#DejaVuSans-Bold-64" transform="translate(118.017578 0)"/>
      <use xlink:href="#DejaVuSans-Bold-65" transform="translate(189.599609 0)"/>
      <use xlink:href="#DejaVuSans-Bold-72" transform="translate(257.421875 0)"/>
      <use xlink:href="#DejaVuSans-Bold-73" transform="translate(306.738281 0)"/>
      <use xlink:href="#DejaVuSans-Bold-2e" transform="translate(366.259766 0)"/>
      <use xlink:href="#DejaVuSans-Bold-70" transform="translate(404.248047 0)"/>
      <use xlink:href="#DejaVuSans-Bold-79" transform="translate(475.830078 0)"/>
      <use xlink:href="#DejaVuSans-Bold-5c" transform="translate(541.015625 0)"/>
      <use xlink:href="#DejaVuSans-Bold-6e" transform="translate(577.539062 0)"/>
      <use xlink:href="#DejaVuSans-Bold-28" transform="translate(648.730469 0)"/>
      <use xlink:href="#DejaVuSans-Bold-31" transform="translate(694.433594 0)"/>
      <use xlink:href="#DejaVuSans-Bold-20" transform="translate(764.013672 0)"/>
      <use xlink:href="#DejaVuSans-Bold-63" transform="translate(798.828125 0)"/>
      <use xlink:href="#DejaVuSans-Bold-6c" transform="translate(858.105469 0)"/>
      <use xlink:href="#DejaVuSans-Bold-61" transform="translate(892.382812 0)"/>
      <use xlink:href="#DejaVuSans-Bold-73" transform="translate(959.863281 0)"/>
      <use xlink:href="#DejaVuSans-Bold-73" transform="translate(1019.384766 0)"/>
      <use xlink:href="#DejaVuSans-Bold-65" transform="translate(1078.90625 0)"/>
      <use xlink:href="#DejaVuSans-Bold-73" transform="translate(1146.728516 0)"/>
      <use xlink:href="#DejaVuSans-Bold-2c" transform="translate(1206.25 0)"/>
      <use xlink:href="#DejaVuSans-Bold-20" transform="translate(1244.238281 0)"/>
      <use xlink:href="#DejaVuSans-Bold-34" transform="translate(1279.052734 0)"/>
      <use xlink:href="#DejaVuSans-Bold-20" transform="translate(1348.632812 0)"/>
      <use xlink:href="#DejaVuSans-Bold-66" transform="translate(1383.447266 0)"/>
      <use xlink:href="#DejaVuSans-Bold-75" transform="translate(1426.953125 0)"/>
      <use xlink:href="#DejaVuSans-Bold-6e" transform="translate(1498.144531 0)"/>
      <use xlink:href="#DejaVuSans-Bold-63" transform="translate(1569.335938 0)"/>
      <use xlink:href="#DejaVuSans-Bold-73" transform="translate(1628.613281 0)"/>
      <use xlink:href="#DejaVuSans-Bold-29" transform="translate(1688.134766 0)"/>
     </g>
    </g>
   </g>
   <g id="text_25">
    <g clip-path="url(#peab9f40786)">
     <!-- append -->
     <g transform="translate(871.72655 512.683078) scale(0.08 -0.08)">
      <use xlink:href="#DejaVuSans-Bold-61"/>
      <use xlink:href="#DejaVuSans-Bold-70" transform="translate(67.480469 0)"/>
      <use xlink:href="#DejaVuSans-Bold-70" transform="translate(139.0625 0)"/>
      <use xlink:href="#DejaVuSans-Bold-65" transform="translate(210.644531 0)"/>
      <use xlink:href="#DejaVuSans-Bold-6e" transform="translate(278.466797 0)"/>
      <use xlink:href="#DejaVuSans-Bold-64" transform="translate(349.658203 0)"/>
     </g>
    </g>
   </g>
   <g id="text_26">
    <g clip-path="url(#peab9f40786)">
     <!-- time -->
     <g transform="translate(135.351544 525.949655) scale(0.08 -0.08)">
      <defs>
       <path id="DejaVuSans-Bold-6d" d="M 3781 2919 
Q 3994 3244 4286 3414 
Q 4578 3584 4928 3584 
Q 5531 3584 5847 3212 
Q 6163 2841 6163 2131 
L 6163 0 
L 5038 0 
L 5038 1825 
Q 5041 1866 5042 1909 
Q 5044 1953 5044 2034 
Q 5044 2406 4934 2573 
Q 4825 2741 4581 2741 
Q 4263 2741 4089 2478 
Q 3916 2216 3909 1719 
L 3909 0 
L 2784 0 
L 2784 1825 
Q 2784 2406 2684 2573 
Q 2584 2741 2328 2741 
Q 2006 2741 1831 2477 
Q 1656 2213 1656 1722 
L 1656 0 
L 531 0 
L 531 3500 
L 1656 3500 
L 1656 2988 
Q 1863 3284 2130 3434 
Q 2397 3584 2719 3584 
Q 3081 3584 3359 3409 
Q 3638 3234 3781 2919 
z
" transform="scale(0.015625)"/>
      </defs>
      <use xlink:href="#DejaVuSans-Bold-74"/>
      <use xlink:href="#DejaVuSans-Bold-69" transform="translate(47.802734 0)"/>
      <use xlink:href="#DejaVuSans-Bold-6d" transform="translate(82.080078 0)"/>
      <use xlink:href="#DejaVuSans-Bold-65" transform="translate(186.279297 0)"/>
     </g>
    </g>
   </g>
   <g id="text_27">
    <g clip-path="url(#peab9f40786)">
     <!-- display_history -->
     <g transform="translate(335.424317 139.735173) scale(0.08 -0.08)">
      <defs>
       <path id="DejaVuSans-Bold-68" d="M 4056 2131 
L 4056 0 
L 2931 0 
L 2931 347 
L 2931 1625 
Q 2931 2084 2911 2256 
Q 2891 2428 2841 2509 
Q 2775 2619 2662 2680 
Q 2550 2741 2406 2741 
Q 2056 2741 1856 2470 
Q 1656 2200 1656 1722 
L 1656 0 
L 538 0 
L 538 4863 
L 1656 4863 
L 1656 2988 
Q 1909 3294 2193 3439 
Q 2478 3584 2822 3584 
Q 3428 3584 3742 3212 
Q 4056 2841 4056 2131 
z
" transform="scale(0.015625)"/>
      </defs>
      <use xlink:href="#DejaVuSans-Bold-64"/>
      <use xlink:href="#DejaVuSans-Bold-69" transform="translate(71.582031 0)"/>
      <use xlink:href="#DejaVuSans-Bold-73" transform="translate(105.859375 0)"/>
      <use xlink:href="#DejaVuSans-Bold-70" transform="translate(165.380859 0)"/>
      <use xlink:href="#DejaVuSans-Bold-6c" transform="translate(236.962891 0)"/>
      <use xlink:href="#DejaVuSans-Bold-61" transform="translate(271.240234 0)"/>
      <use xlink:href="#DejaVuSans-Bold-79" transform="translate(335.595703 0)"/>
      <use xlink:href="#DejaVuSans-Bold-5f" transform="translate(400.78125 0)"/>
      <use xlink:href="#DejaVuSans-Bold-68" transform="translate(450.78125 0)"/>
      <use xlink:href="#DejaVuSans-Bold-69" transform="translate(521.972656 0)"/>
      <use xlink:href="#DejaVuSans-Bold-73" transform="translate(556.25 0)"/>
      <use xlink:href="#DejaVuSans-Bold-74" transform="translate(615.771484 0)"/>
      <use xlink:href="#DejaVuSans-Bold-6f" transform="translate(663.574219 0)"/>
      <use xlink:href="#DejaVuSans-Bold-72" transform="translate(732.275391 0)"/>
      <use xlink:href="#DejaVuSans-Bold-79" transform="translate(781.591797 0)"/>
     </g>
    </g>
   </g>
   <g id="text_28">
    <g clip-path="url(#peab9f40786)">
     <!-- Model -->
     <g transform="translate(495.838803 635.75044) scale(0.08 -0.08)">
      <defs>
       <path id="DejaVuSans-Bold-4d" d="M 588 4666 
L 2119 4666 
L 3181 2169 
L 4250 4666 
L 5778 4666 
L 5778 0 
L 4641 0 
L 4641 3413 
L 3566 897 
L 2803 897 
L 1728 3413 
L 1728 0 
L 588 0 
L 588 4666 
z
" transform="scale(0.015625)"/>
      </defs>
      <use xlink:href="#DejaVuSans-Bold-4d"/>
      <use xlink:href="#DejaVuSans-Bold-6f" transform="translate(99.511719 0)"/>
      <use xlink:href="#DejaVuSans-Bold-64" transform="translate(168.212891 0)"/>
      <use xlink:href="#DejaVuSans-Bold-65" transform="translate(239.794922 0)"/>
      <use xlink:href="#DejaVuSans-Bold-6c" transform="translate(307.617188 0)"/>
     </g>
    </g>
   </g>
   <g id="text_29">
    <g clip-path="url(#peab9f40786)">
     <!-- update_status -->
     <g transform="translate(742.346068 590.045842) scale(0.08 -0.08)">
      <use xlink:href="#DejaVuSans-Bold-75"/>
      <use xlink:href="#DejaVuSans-Bold-70" transform="translate(71.191406 0)"/>
      <use xlink:href="#DejaVuSans-Bold-64" transform="translate(142.773438 0)"/>
      <use xlink:href="#DejaVuSans-Bold-61" transform="translate(214.355469 0)"/>
      <use xlink:href="#DejaVuSans-Bold-74" transform="translate(281.835938 0)"/>
      <use xlink:href="#DejaVuSans-Bold-65" transform="translate(329.638672 0)"/>
      <use xlink:href="#DejaVuSans-Bold-5f" transform="translate(397.460938 0)"/>
      <use xlink:href="#DejaVuSans-Bold-73" transform="translate(447.460938 0)"/>
      <use xlink:href="#DejaVuSans-Bold-74" transform="translate(506.982422 0)"/>
      <use xlink:href="#DejaVuSans-Bold-61" transform="translate(554.785156 0)"/>
      <use xlink:href="#DejaVuSans-Bold-74" transform="translate(622.265625 0)"/>
      <use xlink:href="#DejaVuSans-Bold-75" transform="translate(670.068359 0)"/>
      <use xlink:href="#DejaVuSans-Bold-73" transform="translate(741.259766 0)"/>
     </g>
    </g>
   </g>
   <g id="text_30">
    <g clip-path="url(#peab9f40786)">
     <!-- print -->
     <g transform="translate(101.582048 437.371508) scale(0.08 -0.08)">
      <use xlink:href="#DejaVuSans-Bold-70"/>
      <use xlink:href="#DejaVuSans-Bold-72" transform="translate(71.582031 0)"/>
      <use xlink:href="#DejaVuSans-Bold-69" transform="translate(120.898438 0)"/>
      <use xlink:href="#DejaVuSans-Bold-6e" transform="translate(155.175781 0)"/>
      <use xlink:href="#DejaVuSans-Bold-74" transform="translate(226.367188 0)"/>
     </g>
    </g>
   </g>
   <g id="text_31">
    <g clip-path="url(#peab9f40786)">
     <!-- localtime -->
     <g transform="translate(661.723668 134.442435) scale(0.08 -0.08)">
      <use xlink:href="#DejaVuSans-Bold-6c"/>
      <use xlink:href="#DejaVuSans-Bold-6f" transform="translate(34.277344 0)"/>
      <use xlink:href="#DejaVuSans-Bold-63" transform="translate(102.978516 0)"/>
      <use xlink:href="#DejaVuSans-Bold-61" transform="translate(162.255859 0)"/>
      <use xlink:href="#DejaVuSans-Bold-6c" transform="translate(229.736328 0)"/>
      <use xlink:href="#DejaVuSans-Bold-74" transform="translate(264.013672 0)"/>
      <use xlink:href="#DejaVuSans-Bold-69" transform="translate(311.816406 0)"/>
      <use xlink:href="#DejaVuSans-Bold-6d" transform="translate(346.09375 0)"/>
      <use xlink:href="#DejaVuSans-Bold-65" transform="translate(450.292969 0)"/>
     </g>
    </g>
   </g>
   <g id="text_32">
    <g clip-path="url(#peab9f40786)">
     <!-- llm -->
     <g transform="translate(85.886069 344.085135) scale(0.08 -0.08)">
      <use xlink:href="#DejaVuSans-Bold-6c"/>
      <use xlink:href="#DejaVuSans-Bold-6c" transform="translate(34.277344 0)"/>
      <use xlink:href="#DejaVuSans-Bold-6d" transform="translate(68.554688 0)"/>
     </g>
    </g>
   </g>
   <g id="text_33">
    <g clip-path="url(#peab9f40786)">
     <!-- sleep -->
     <g transform="translate(629.904169 649.360372) scale(0.08 -0.08)">
      <use xlink:href="#DejaVuSans-Bold-73"/>
      <use xlink:href="#DejaVuSans-Bold-6c" transform="translate(59.521484 0)"/>
      <use xlink:href="#DejaVuSans-Bold-65" transform="translate(93.798828 0)"/>
      <use xlink:href="#DejaVuSans-Bold-65" transform="translate(161.621094 0)"/>
      <use xlink:href="#DejaVuSans-Bold-70" transform="translate(229.443359 0)"/>
     </g>
    </g>
   </g>
   <g id="text_34">
    <g clip-path="url(#peab9f40786)">
     <!-- RestaurantOrder -->
     <g transform="translate(847.631469 420.326252) scale(0.08 -0.08)">
      <defs>
       <path id="DejaVuSans-Bold-52" d="M 2297 2597 
Q 2675 2597 2839 2737 
Q 3003 2878 3003 3200 
Q 3003 3519 2839 3656 
Q 2675 3794 2297 3794 
L 1791 3794 
L 1791 2597 
L 2297 2597 
z
M 1791 1766 
L 1791 0 
L 588 0 
L 588 4666 
L 2425 4666 
Q 3347 4666 3776 4356 
Q 4206 4047 4206 3378 
Q 4206 2916 3982 2619 
Q 3759 2322 3309 2181 
Q 3556 2125 3751 1926 
Q 3947 1728 4147 1325 
L 4800 0 
L 3519 0 
L 2950 1159 
Q 2778 1509 2601 1637 
Q 2425 1766 2131 1766 
L 1791 1766 
z
" transform="scale(0.015625)"/>
      </defs>
      <use xlink:href="#DejaVuSans-Bold-52"/>
      <use xlink:href="#DejaVuSans-Bold-65" transform="translate(77.001953 0)"/>
      <use xlink:href="#DejaVuSans-Bold-73" transform="translate(144.824219 0)"/>
      <use xlink:href="#DejaVuSans-Bold-74" transform="translate(204.345703 0)"/>
      <use xlink:href="#DejaVuSans-Bold-61" transform="translate(252.148438 0)"/>
      <use xlink:href="#DejaVuSans-Bold-75" transform="translate(319.628906 0)"/>
      <use xlink:href="#DejaVuSans-Bold-72" transform="translate(390.820312 0)"/>
      <use xlink:href="#DejaVuSans-Bold-61" transform="translate(440.136719 0)"/>
      <use xlink:href="#DejaVuSans-Bold-6e" transform="translate(507.617188 0)"/>
      <use xlink:href="#DejaVuSans-Bold-74" transform="translate(578.808594 0)"/>
      <use xlink:href="#DejaVuSans-Bold-4f" transform="translate(626.611328 0)"/>
      <use xlink:href="#DejaVuSans-Bold-72" transform="translate(711.621094 0)"/>
      <use xlink:href="#DejaVuSans-Bold-64" transform="translate(760.9375 0)"/>
      <use xlink:href="#DejaVuSans-Bold-65" transform="translate(832.519531 0)"/>
      <use xlink:href="#DejaVuSans-Bold-72" transform="translate(900.341797 0)"/>
     </g>
    </g>
   </g>
   <g id="text_35">
    <g clip-path="url(#peab9f40786)">
     <!-- order_stage -->
     <g transform="translate(272.090871 107.450459) scale(0.08 -0.08)">
      <use xlink:href="#DejaVuSans-Bold-6f"/>
      <use xlink:href="#DejaVuSans-Bold-72" transform="translate(68.701172 0)"/>
      <use xlink:href="#DejaVuSans-Bold-64" transform="translate(118.017578 0)"/>
      <use xlink:href="#DejaVuSans-Bold-65" transform="translate(189.599609 0)"/>
      <use xlink:href="#DejaVuSans-Bold-72" transform="translate(257.421875 0)"/>
      <use xlink:href="#DejaVuSans-Bold-5f" transform="translate(306.738281 0)"/>
      <use xlink:href="#DejaVuSans-Bold-73" transform="translate(356.738281 0)"/>
      <use xlink:href="#DejaVuSans-Bold-74" transform="translate(416.259766 0)"/>
      <use xlink:href="#DejaVuSans-Bold-61" transform="translate(464.0625 0)"/>
      <use xlink:href="#DejaVuSans-Bold-67" transform="translate(531.542969 0)"/>
      <use xlink:href="#DejaVuSans-Bold-65" transform="translate(603.125 0)"/>
     </g>
    </g>
   </g>
   <g id="text_36">
    <g clip-path="url(#peab9f40786)">
     <!-- __init__ -->
     <g transform="translate(876.631086 214.00268) scale(0.08 -0.08)">
      <use xlink:href="#DejaVuSans-Bold-5f"/>
      <use xlink:href="#DejaVuSans-Bold-5f" transform="translate(50 0)"/>
      <use xlink:href="#DejaVuSans-Bold-69" transform="translate(100 0)"/>
      <use xlink:href="#DejaVuSans-Bold-6e" transform="translate(134.277344 0)"/>
      <use xlink:href="#DejaVuSans-Bold-69" transform="translate(205.46875 0)"/>
      <use xlink:href="#DejaVuSans-Bold-74" transform="translate(239.746094 0)"/>
      <use xlink:href="#DejaVuSans-Bold-5f" transform="translate(287.548828 0)"/>
      <use xlink:href="#DejaVuSans-Bold-5f" transform="translate(337.548828 0)"/>
     </g>
    </g>
   </g>
   <g id="text_37">
    <g clip-path="url(#peab9f40786)">
     <!-- strftime -->
     <g transform="translate(351.700676 647.787622) scale(0.08 -0.08)">
      <use xlink:href="#DejaVuSans-Bold-73"/>
      <use xlink:href="#DejaVuSans-Bold-74" transform="translate(59.521484 0)"/>
      <use xlink:href="#DejaVuSans-Bold-72" transform="translate(107.324219 0)"/>
      <use xlink:href="#DejaVuSans-Bold-66" transform="translate(156.640625 0)"/>
      <use xlink:href="#DejaVuSans-Bold-74" transform="translate(200.146484 0)"/>
      <use xlink:href="#DejaVuSans-Bold-69" transform="translate(247.949219 0)"/>
      <use xlink:href="#DejaVuSans-Bold-6d" transform="translate(282.226562 0)"/>
      <use xlink:href="#DejaVuSans-Bold-65" transform="translate(386.425781 0)"/>
     </g>
    </g>
   </g>
   <g id="text_38">
    <!-- Code Context Graph - Enhanced Relationships -->
    <g transform="translate(292.9925 19.3575) scale(0.16 -0.16)">
     <defs>
      <path id="DejaVuSans-Bold-43" d="M 4288 256 
Q 3956 84 3597 -3 
Q 3238 -91 2847 -91 
Q 1681 -91 1000 561 
Q 319 1213 319 2328 
Q 319 3447 1000 4098 
Q 1681 4750 2847 4750 
Q 3238 4750 3597 4662 
Q 3956 4575 4288 4403 
L 4288 3438 
Q 3953 3666 3628 3772 
Q 3303 3878 2944 3878 
Q 2300 3878 1931 3465 
Q 1563 3053 1563 2328 
Q 1563 1606 1931 1193 
Q 2300 781 2944 781 
Q 3303 781 3628 887 
Q 3953 994 4288 1222 
L 4288 256 
z
" transform="scale(0.015625)"/>
      <path id="DejaVuSans-Bold-78" d="M 1422 1791 
L 159 3500 
L 1344 3500 
L 2059 2463 
L 2784 3500 
L 3969 3500 
L 2706 1797 
L 4031 0 
L 2847 0 
L 2059 1106 
L 1281 0 
L 97 0 
L 1422 1791 
z
" transform="scale(0.015625)"/>
      <path id="DejaVuSans-Bold-47" d="M 4781 347 
Q 4331 128 3847 18 
Q 3363 -91 2847 -91 
Q 1681 -91 1000 561 
Q 319 1213 319 2328 
Q 319 3456 1012 4103 
Q 1706 4750 2913 4750 
Q 3378 4750 3804 4662 
Q 4231 4575 4609 4403 
L 4609 3438 
Q 4219 3659 3833 3768 
Q 3447 3878 3059 3878 
Q 2341 3878 1952 3476 
Q 1563 3075 1563 2328 
Q 1563 1588 1938 1184 
Q 2313 781 3003 781 
Q 3191 781 3352 804 
Q 3513 828 3641 878 
L 3641 1784 
L 2906 1784 
L 2906 2591 
L 4781 2591 
L 4781 347 
z
" transform="scale(0.015625)"/>
      <path id="DejaVuSans-Bold-2d" d="M 347 2297 
L 2309 2297 
L 2309 1388 
L 347 1388 
L 347 2297 
z
" transform="scale(0.015625)"/>
      <path id="DejaVuSans-Bold-45" d="M 588 4666 
L 3834 4666 
L 3834 3756 
L 1791 3756 
L 1791 2888 
L 3713 2888 
L 3713 1978 
L 1791 1978 
L 1791 909 
L 3903 909 
L 3903 0 
L 588 0 
L 588 4666 
z
" transform="scale(0.015625)"/>
     </defs>
     <use xlink:href="#DejaVuSans-Bold-43"/>
     <use xlink:href="#DejaVuSans-Bold-6f" transform="translate(73.388672 0)"/>
     <use xlink:href="#DejaVuSans-Bold-64" transform="translate(142.089844 0)"/>
     <use xlink:href="#DejaVuSans-Bold-65" transform="translate(213.671875 0)"/>
     <use xlink:href="#DejaVuSans-Bold-20" transform="translate(281.494141 0)"/>
     <use xlink:href="#DejaVuSans-Bold-43" transform="translate(316.308594 0)"/>
     <use xlink:href="#DejaVuSans-Bold-6f" transform="translate(389.697266 0)"/>
     <use xlink:href="#DejaVuSans-Bold-6e" transform="translate(458.398438 0)"/>
     <use xlink:href="#DejaVuSans-Bold-74" transform="translate(529.589844 0)"/>
     <use xlink:href="#DejaVuSans-Bold-65" transform="translate(577.392578 0)"/>
     <use xlink:href="#DejaVuSans-Bold-78" transform="translate(645.214844 0)"/>
     <use xlink:href="#DejaVuSans-Bold-74" transform="translate(709.716797 0)"/>
     <use xlink:href="#DejaVuSans-Bold-20" transform="translate(757.519531 0)"/>
     <use xlink:href="#DejaVuSans-Bold-47" transform="translate(792.333984 0)"/>
     <use xlink:href="#DejaVuSans-Bold-72" transform="translate(874.414062 0)"/>
     <use xlink:href="#DejaVuSans-Bold-61" transform="translate(923.730469 0)"/>
     <use xlink:href="#DejaVuSans-Bold-70" transform="translate(991.210938 0)"/>
     <use xlink:href="#DejaVuSans-Bold-68" transform="translate(1062.792969 0)"/>
     <use xlink:href="#DejaVuSans-Bold-20" transform="translate(1133.984375 0)"/>
     <use xlink:href="#DejaVuSans-Bold-2d" transform="translate(1168.798828 0)"/>
     <use xlink:href="#DejaVuSans-Bold-20" transform="translate(1210.302734 0)"/>
     <use xlink:href="#DejaVuSans-Bold-45" transform="translate(1245.117188 0)"/>
     <use xlink:href="#DejaVuSans-Bold-6e" transform="translate(1313.427734 0)"/>
     <use xlink:href="#DejaVuSans-Bold-68" transform="translate(1384.619141 0)"/>
     <use xlink:href="#DejaVuSans-Bold-61" transform="translate(1455.810547 0)"/>
     <use xlink:href="#DejaVuSans-Bold-6e" transform="translate(1523.291016 0)"/>
     <use xlink:href="#DejaVuSans-Bold-63" transform="translate(1594.482422 0)"/>
     <use xlink:href="#DejaVuSans-Bold-65" transform="translate(1653.759766 0)"/>
     <use xlink:href="#DejaVuSans-Bold-64" transform="translate(1721.582031 0)"/>
     <use xlink:href="#DejaVuSans-Bold-20" transform="translate(1793.164062 0)"/>
     <use xlink:href="#DejaVuSans-Bold-52" transform="translate(1827.978516 0)"/>
     <use xlink:href="#DejaVuSans-Bold-65" transform="translate(1904.980469 0)"/>
     <use xlink:href="#DejaVuSans-Bold-6c" transform="translate(1972.802734 0)"/>
     <use xlink:href="#DejaVuSans-Bold-61" transform="translate(2007.080078 0)"/>
     <use xlink:href="#DejaVuSans-Bold-74" transform="translate(2074.560547 0)"/>
     <use xlink:href="#DejaVuSans-Bold-69" transform="translate(2122.363281 0)"/>
     <use xlink:href="#DejaVuSans-Bold-6f" transform="translate(2156.640625 0)"/>
     <use xlink:href="#DejaVuSans-Bold-6e" transform="translate(2225.341797 0)"/>
     <use xlink:href="#DejaVuSans-Bold-73" transform="translate(2296.533203 0)"/>
     <use xlink:href="#DejaVuSans-Bold-68" transform="translate(2356.054688 0)"/>
     <use xlink:href="#DejaVuSans-Bold-69" transform="translate(2427.246094 0)"/>
     <use xlink:href="#DejaVuSans-Bold-70" transform="translate(2461.523438 0)"/>
     <use xlink:href="#DejaVuSans-Bold-73" transform="translate(2533.105469 0)"/>
    </g>
   </g>
   <g id="legend_1">
    <g id="patch_38">
     <path d="M 885.015625 106.748125 
L 986.6 106.748125 
Q 988.6 106.748125 988.6 104.748125 
L 988.6 32.3575 
Q 988.6 30.3575 986.6 30.3575 
L 885.015625 30.3575 
Q 883.015625 30.3575 883.015625 32.3575 
L 883.015625 104.748125 
Q 883.015625 106.748125 885.015625 106.748125 
z
" style="fill: #ffffff; opacity: 0.8; stroke: #cccccc; stroke-linejoin: miter"/>
    </g>
    <g id="line2d_1">
     <path d="M 887.015625 38.455938 
L 897.015625 38.455938 
L 907.015625 38.455938 
" style="fill: none; stroke: #0000ff; stroke-width: 2; stroke-linecap: square"/>
    </g>
    <g id="text_39">
     <!-- Function Calls -->
     <g transform="translate(915.015625 41.955938) scale(0.1 -0.1)">
      <defs>
       <path id="DejaVuSans-46" d="M 628 4666 
L 3309 4666 
L 3309 4134 
L 1259 4134 
L 1259 2759 
L 3109 2759 
L 3109 2228 
L 1259 2228 
L 1259 0 
L 628 0 
L 628 4666 
z
" transform="scale(0.015625)"/>
       <path id="DejaVuSans-75" d="M 544 1381 
L 544 3500 
L 1119 3500 
L 1119 1403 
Q 1119 906 1312 657 
Q 1506 409 1894 409 
Q 2359 409 2629 706 
Q 2900 1003 2900 1516 
L 2900 3500 
L 3475 3500 
L 3475 0 
L 2900 0 
L 2900 538 
Q 2691 219 2414 64 
Q 2138 -91 1772 -91 
Q 1169 -91 856 284 
Q 544 659 544 1381 
z
M 1991 3584 
L 1991 3584 
z
" transform="scale(0.015625)"/>
       <path id="DejaVuSans-6e" d="M 3513 2113 
L 3513 0 
L 2938 0 
L 2938 2094 
Q 2938 2591 2744 2837 
Q 2550 3084 2163 3084 
Q 1697 3084 1428 2787 
Q 1159 2491 1159 1978 
L 1159 0 
L 581 0 
L 581 3500 
L 1159 3500 
L 1159 2956 
Q 1366 3272 1645 3428 
Q 1925 3584 2291 3584 
Q 2894 3584 3203 3211 
Q 3513 2838 3513 2113 
z
" transform="scale(0.015625)"/>
       <path id="DejaVuSans-74" d="M 1172 4494 
L 1172 3500 
L 2356 3500 
L 2356 3053 
L 1172 3053 
L 1172 1153 
Q 1172 725 1289 603 
Q 1406 481 1766 481 
L 2356 481 
L 2356 0 
L 1766 0 
Q 1100 0 847 248 
Q 594 497 594 1153 
L 594 3053 
L 172 3053 
L 172 3500 
L 594 3500 
L 594 4494 
L 1172 4494 
z
" transform="scale(0.015625)"/>
       <path id="DejaVuSans-69" d="M 603 3500 
L 1178 3500 
L 1178 0 
L 603 0 
L 603 3500 
z
M 603 4863 
L 1178 4863 
L 1178 4134 
L 603 4134 
L 603 4863 
z
" transform="scale(0.015625)"/>
       <path id="DejaVuSans-20" transform="scale(0.015625)"/>
       <path id="DejaVuSans-43" d="M 4122 4306 
L 4122 3641 
Q 3803 3938 3442 4084 
Q 3081 4231 2675 4231 
Q 1875 4231 1450 3742 
Q 1025 3253 1025 2328 
Q 1025 1406 1450 917 
Q 1875 428 2675 428 
Q 3081 428 3442 575 
Q 3803 722 4122 1019 
L 4122 359 
Q 3791 134 3420 21 
Q 3050 -91 2638 -91 
Q 1578 -91 968 557 
Q 359 1206 359 2328 
Q 359 3453 968 4101 
Q 1578 4750 2638 4750 
Q 3056 4750 3426 4639 
Q 3797 4528 4122 4306 
z
" transform="scale(0.015625)"/>
      </defs>
      <use xlink:href="#DejaVuSans-46"/>
      <use xlink:href="#DejaVuSans-75" transform="translate(52.019531 0)"/>
      <use xlink:href="#DejaVuSans-6e" transform="translate(115.398438 0)"/>
      <use xlink:href="#DejaVuSans-63" transform="translate(178.777344 0)"/>
      <use xlink:href="#DejaVuSans-74" transform="translate(233.757812 0)"/>
      <use xlink:href="#DejaVuSans-69" transform="translate(272.966797 0)"/>
      <use xlink:href="#DejaVuSans-6f" transform="translate(300.75 0)"/>
      <use xlink:href="#DejaVuSans-6e" transform="translate(361.931641 0)"/>
      <use xlink:href="#DejaVuSans-20" transform="translate(425.310547 0)"/>
      <use xlink:href="#DejaVuSans-43" transform="translate(457.097656 0)"/>
      <use xlink:href="#DejaVuSans-61" transform="translate(526.921875 0)"/>
      <use xlink:href="#DejaVuSans-6c" transform="translate(588.201172 0)"/>
      <use xlink:href="#DejaVuSans-6c" transform="translate(615.984375 0)"/>
      <use xlink:href="#DejaVuSans-73" transform="translate(643.767578 0)"/>
     </g>
    </g>
    <g id="line2d_2">
     <path d="M 887.015625 53.134063 
L 897.015625 53.134063 
L 907.015625 53.134063 
" style="fill: none; stroke: #ff0000; stroke-width: 3; stroke-linecap: square"/>
    </g>
    <g id="text_40">
     <!-- Inheritance -->
     <g transform="translate(915.015625 56.634063) scale(0.1 -0.1)">
      <defs>
       <path id="DejaVuSans-49" d="M 628 4666 
L 1259 4666 
L 1259 0 
L 628 0 
L 628 4666 
z
" transform="scale(0.015625)"/>
       <path id="DejaVuSans-68" d="M 3513 2113 
L 3513 0 
L 2938 0 
L 2938 2094 
Q 2938 2591 2744 2837 
Q 2550 3084 2163 3084 
Q 1697 3084 1428 2787 
Q 1159 2491 1159 1978 
L 1159 0 
L 581 0 
L 581 4863 
L 1159 4863 
L 1159 2956 
Q 1366 3272 1645 3428 
Q 1925 3584 2291 3584 
Q 2894 3584 3203 3211 
Q 3513 2838 3513 2113 
z
" transform="scale(0.015625)"/>
       <path id="DejaVuSans-72" d="M 2631 2963 
Q 2534 3019 2420 3045 
Q 2306 3072 2169 3072 
Q 1681 3072 1420 2755 
Q 1159 2438 1159 1844 
L 1159 0 
L 581 0 
L 581 3500 
L 1159 3500 
L 1159 2956 
Q 1341 3275 1631 3429 
Q 1922 3584 2338 3584 
Q 2397 3584 2469 3576 
Q 2541 3569 2628 3553 
L 2631 2963 
z
" transform="scale(0.015625)"/>
      </defs>
      <use xlink:href="#DejaVuSans-49"/>
      <use xlink:href="#DejaVuSans-6e" transform="translate(29.492188 0)"/>
      <use xlink:href="#DejaVuSans-68" transform="translate(92.871094 0)"/>
      <use xlink:href="#DejaVuSans-65" transform="translate(156.25 0)"/>
      <use xlink:href="#DejaVuSans-72" transform="translate(217.773438 0)"/>
      <use xlink:href="#DejaVuSans-69" transform="translate(258.886719 0)"/>
      <use xlink:href="#DejaVuSans-74" transform="translate(286.669922 0)"/>
      <use xlink:href="#DejaVuSans-61" transform="translate(325.878906 0)"/>
      <use xlink:href="#DejaVuSans-6e" transform="translate(387.158203 0)"/>
      <use xlink:href="#DejaVuSans-63" transform="translate(450.537109 0)"/>
      <use xlink:href="#DejaVuSans-65" transform="translate(505.517578 0)"/>
     </g>
    </g>
    <g id="line2d_3">
     <path d="M 887.015625 67.812188 
L 897.015625 67.812188 
L 907.015625 67.812188 
" style="fill: none; stroke-dasharray: 7.4,3.2; stroke-dashoffset: 0; stroke: #800080; stroke-width: 2"/>
    </g>
    <g id="text_41">
     <!-- Composition -->
     <g transform="translate(915.015625 71.312188) scale(0.1 -0.1)">
      <use xlink:href="#DejaVuSans-43"/>
      <use xlink:href="#DejaVuSans-6f" transform="translate(69.824219 0)"/>
      <use xlink:href="#DejaVuSans-6d" transform="translate(131.005859 0)"/>
      <use xlink:href="#DejaVuSans-70" transform="translate(228.417969 0)"/>
      <use xlink:href="#DejaVuSans-6f" transform="translate(291.894531 0)"/>
      <use xlink:href="#DejaVuSans-73" transform="translate(353.076172 0)"/>
      <use xlink:href="#DejaVuSans-69" transform="translate(405.175781 0)"/>
      <use xlink:href="#DejaVuSans-74" transform="translate(432.958984 0)"/>
      <use xlink:href="#DejaVuSans-69" transform="translate(472.167969 0)"/>
      <use xlink:href="#DejaVuSans-6f" transform="translate(499.951172 0)"/>
      <use xlink:href="#DejaVuSans-6e" transform="translate(561.132812 0)"/>
     </g>
    </g>
    <g id="PathCollection_5">
     <defs>
      <path id="m51f44e2bd7" d="M -5 5 
L 5 5 
L 5 -5 
L -5 -5 
z
" style="stroke: #add8e6"/>
     </defs>
     <g>
      <use xlink:href="#m51f44e2bd7" x="897.015625" y="83.365313" style="fill: #add8e6; stroke: #add8e6"/>
     </g>
    </g>
    <g id="text_42">
     <!-- Source Files -->
     <g transform="translate(915.015625 85.990313) scale(0.1 -0.1)">
      <defs>
       <path id="DejaVuSans-53" d="M 3425 4513 
L 3425 3897 
Q 3066 4069 2747 4153 
Q 2428 4238 2131 4238 
Q 1616 4238 1336 4038 
Q 1056 3838 1056 3469 
Q 1056 3159 1242 3001 
Q 1428 2844 1947 2747 
L 2328 2669 
Q 3034 2534 3370 2195 
Q 3706 1856 3706 1288 
Q 3706 609 3251 259 
Q 2797 -91 1919 -91 
Q 1588 -91 1214 -16 
Q 841 59 441 206 
L 441 856 
Q 825 641 1194 531 
Q 1563 422 1919 422 
Q 2459 422 2753 634 
Q 3047 847 3047 1241 
Q 3047 1584 2836 1778 
Q 2625 1972 2144 2069 
L 1759 2144 
Q 1053 2284 737 2584 
Q 422 2884 422 3419 
Q 422 4038 858 4394 
Q 1294 4750 2059 4750 
Q 2388 4750 2728 4690 
Q 3069 4631 3425 4513 
z
" transform="scale(0.015625)"/>
      </defs>
      <use xlink:href="#DejaVuSans-53"/>
      <use xlink:href="#DejaVuSans-6f" transform="translate(63.476562 0)"/>
      <use xlink:href="#DejaVuSans-75" transform="translate(124.658203 0)"/>
      <use xlink:href="#DejaVuSans-72" transform="translate(188.037109 0)"/>
      <use xlink:href="#DejaVuSans-63" transform="translate(226.900391 0)"/>
      <use xlink:href="#DejaVuSans-65" transform="translate(281.880859 0)"/>
      <use xlink:href="#DejaVuSans-20" transform="translate(343.404297 0)"/>
      <use xlink:href="#DejaVuSans-46" transform="translate(375.191406 0)"/>
      <use xlink:href="#DejaVuSans-69" transform="translate(425.460938 0)"/>
      <use xlink:href="#DejaVuSans-6c" transform="translate(453.244141 0)"/>
      <use xlink:href="#DejaVuSans-65" transform="translate(481.027344 0)"/>
      <use xlink:href="#DejaVuSans-73" transform="translate(542.550781 0)"/>
     </g>
    </g>
    <g id="PathCollection_6">
     <defs>
      <path id="m1ca2a95bf7" d="M 0 5 
C 1.326016 5 2.597899 4.473168 3.535534 3.535534 
C 4.473168 2.597899 5 1.326016 5 0 
C 5 -1.326016 4.473168 -2.597899 3.535534 -3.535534 
C 2.597899 -4.473168 1.326016 -5 0 -5 
C -1.326016 -5 -2.597899 -4.473168 -3.535534 -3.535534 
C -4.473168 -2.597899 -5 -1.326016 -5 0 
C -5 1.326016 -4.473168 2.597899 -3.535534 3.535534 
C -2.597899 4.473168 -1.326016 5 0 5 
z
" style="stroke: #90ee90"/>
     </defs>
     <g>
      <use xlink:href="#m1ca2a95bf7" x="897.015625" y="98.043438" style="fill: #90ee90; stroke: #90ee90"/>
     </g>
    </g>
    <g id="text_43">
     <!-- Entities -->
     <g transform="translate(915.015625 100.668438) scale(0.1 -0.1)">
      <defs>
       <path id="DejaVuSans-45" d="M 628 4666 
L 3578 4666 
L 3578 4134 
L 1259 4134 
L 1259 2753 
L 3481 2753 
L 3481 2222 
L 1259 2222 
L 1259 531 
L 3634 531 
L 3634 0 
L 628 0 
L 628 4666 
z
" transform="scale(0.015625)"/>
      </defs>
      <use xlink:href="#DejaVuSans-45"/>
      <use xlink:href="#DejaVuSans-6e" transform="translate(63.183594 0)"/>
      <use xlink:href="#DejaVuSans-74" transform="translate(126.5625 0)"/>
      <use xlink:href="#DejaVuSans-69" transform="translate(165.771484 0)"/>
      <use xlink:href="#DejaVuSans-74" transform="translate(193.554688 0)"/>
      <use xlink:href="#DejaVuSans-69" transform="translate(232.763672 0)"/>
      <use xlink:href="#DejaVuSans-65" transform="translate(260.546875 0)"/>
      <use xlink:href="#DejaVuSans-73" transform="translate(322.070312 0)"/>
     </g>
    </g>
   </g>
  </g>
 </g>
 <defs>
  <clipPath id="peab9f40786">
   <rect x="7.2" y="25.3575" width="986.4" height="680.88"/>
  </clipPath>
 </defs>
</svg>
